SplineFontDB: 3.2
FontName: KawaiiMonoRegular
FullName: KawaiiMonoRegular
FamilyName: KawaiiMono
Weight: Regular
Copyright: Copyright (c) 2023, Qwreey
UComments: "2023-1-6: Created with FontForge (http://fontforge.org)"
Version: 001.000
ItalicAngle: 0
UnderlinePosition: -100
UnderlineWidth: 50
Ascent: 800
Descent: 200
InvalidEm: 0
LayerCount: 2
Layer: 0 0 "+tLe6dAAA" 1
Layer: 1 0 "+xV66dAAA" 0
XUID: [1021 168 1591860576 30271]
FSType: 0
OS2Version: 0
OS2_WeightWidthSlopeOnly: 0
OS2_UseTypoMetrics: 1
CreationTime: 1673013936
ModificationTime: 1674506880
PfmFamily: 17
TTFWeight: 400
TTFWidth: 5
LineGap: 90
VLineGap: 0
Panose: 2 0 4 9 2 0 0 9 0 4
OS2TypoAscent: 0
OS2TypoAOffset: 1
OS2TypoDescent: 0
OS2TypoDOffset: 1
OS2TypoLinegap: 90
OS2WinAscent: 0
OS2WinAOffset: 1
OS2WinDescent: 0
OS2WinDOffset: 1
HheadAscent: 0
HheadAOffset: 1
HheadDescent: 0
HheadDOffset: 1
OS2Vendor: 'PfEd'
OS2CodePages: 2000009f.dfd70000
OS2UnicodeRanges: a00002e7.0000f8fb.00000000.00000000
Lookup: 4 0 1 "liga standard lookup" { "liga standard lookup-1"  } ['liga' ('DFLT' <'dflt' > 'cyrl' <'dflt' > 'grek' <'dflt' > 'latn' <'CAT ' 'ROM ' 'dflt' > ) ]
MarkAttachClasses: 1
DEI: 91125

StartChar: A
Encoding: 256 65 0
Width: 550
Flags: HMW
HStem: -170 0 -20 0 20 0 645 90 690 0 160 0 100 0 500 80
VStem: 82 386 235 80
LayerCount: 2
Fore
SplineSet
315 730 m 1053xe040
387.243164062 -0.1962890625 m 1045
315 730 m 1029
315 730 m 1029
235 730 m 1029
468 0 m 5xe080
 388 0 l 5
 355.965860994 150 l 5
 194.407830252 150 l 5
 162 0 l 5
 82 0 l 5xe080
 235 730 l 5
 315 730 l 5xe040
 468 0 l 5xe080
338.880986857 230 m 5
 275.655273438 526.0546875 l 5
 211.692006386 230 l 5
 338.880986857 230 l 5
EndSplineSet
EndChar

StartChar: B
Encoding: 257 66 1
Width: 550
Flags: HW
HStem: 0 80<160 312.065> 326 78<202 311.399> 650 80<160 312.217>
VStem: 362 78<450.653 603.971> 390 78<144.76 283.684>
CounterMasks: 1 e0
LayerCount: 2
Fore
SplineSet
275 405 m 18
 337 405 387 446.6640625 387 498 c 2
 387 545 l 2
 387 600.994595961 335 648 275 649 c 10
 160 650 l 25
 160 405 l 25
 275 405 l 18
275 326 m 10
 160 326 l 1
 160 80 l 25
 275 80 l 18
 337 80 387 121.6640625 387 173 c 2
 387 220 l 2
 387 275.994140625 335 325 275 326 c 10
394 365 m 1
 438.392578125 332.73046875 468 283.756311306 468 232 c 2
 468 173 l 2
 468 81.3486328125 377 0 275 0 c 10
 82 0 l 25
 82 730 l 25
 275 729 l 18
 376 728 468 647.915735298 468 557 c 2
 468 498 l 2
 468 445.936359558 438.212890625 397.422851562 394 365 c 1
EndSplineSet
EndChar

StartChar: C
Encoding: 258 67 2
Width: 550
Flags: HW
HStem: 0 78<212.438 341.555> 651 78<212.438 341.555>
VStem: 82 81<125.254 182 547 603.746> 387 80.9893<126.249 199 530 602.751>
LayerCount: 2
Fore
SplineSet
82 170 m 18
 82 80.5638818104 175.83322705 0 280 0 c 0
 384.853955988 0 467.991228574 88.006716114 467.989257812 199 c 1
 387 199 l 1
 387 131.55197105 340.086703047 78 281 78 c 0
 218.957830876 78 163 127.318766196 163 182 c 10
 163 547 l 18
 163 601.681233804 218.957830876 651 281 651 c 0
 340.086703047 651 387 597.44802895 387 530 c 5
 467.989257812 530 l 5
 467.991228574 640.993283886 384.853955988 729 280 729 c 0
 175.83322705 729 82 648.43611819 82 559 c 10
 82 170 l 18
EndSplineSet
EndChar

StartChar: D
Encoding: 259 68 3
Width: 550
Flags: HW
HStem: 0 80<163 345.904> 650 80<163 341.791>
VStem: 82 81<80 650> 387 81<119.175 604.325>
LayerCount: 2
Fore
SplineSet
163 650 m 1
 163 80 l 1
 275 80 l 2
 336.824071741 80 387 121.66394043 387 173 c 2
 387 546 l 2
 387 601.994595961 335.301872573 650 275 650 c 2
 163 650 l 1
82 0 m 1
 82 730 l 1
 275 730 l 6
 376.487304688 730 468 648.915735298 468 558 c 2
 468 173 l 2
 468 81.3493561435 376.716796875 0 275 0 c 2
 82 0 l 1
EndSplineSet
EndChar

StartChar: E
Encoding: 260 69 4
Width: 550
Flags: HW
HStem: 0 80<162 468> 324 80<162 468> 650 80<162 468>
VStem: 82 80<80 324 404 650>
LayerCount: 2
Fore
SplineSet
162 404 m 5
 468 404 l 5
 468 324 l 5
 162 324 l 5
 162 80 l 5
 468 80 l 5
 468 0 l 5
 82 0 l 5
 82 730 l 5
 468 730 l 5
 468 650 l 5
 162 650 l 5
 162 404 l 5
EndSplineSet
EndChar

StartChar: F
Encoding: 261 70 5
Width: 550
Flags: HW
HStem: 0 21G<82 162> 324 80<162 468> 650 80<162 468>
VStem: 82 80<0 324 404 650>
LayerCount: 2
Fore
SplineSet
82 0 m 17
 82 730 l 1
 468 730 l 1
 468 650 l 1
 162 650 l 1
 162 404 l 1
 468 404 l 1
 468 324 l 1
 162 324 l 1
 162 0 l 9
 82 0 l 17
EndSplineSet
EndChar

StartChar: G
Encoding: 262 71 6
Width: 550
Flags: HW
HStem: 0 80<204.544 346.067> 251 81<247 387> 650 80<208.479 341.942>
VStem: 82 81<119.175 604.325> 387 81<119.175 251 511 604.325>
LayerCount: 2
Fore
SplineSet
257 332 m 25
 468 332 l 17
 468 173 l 2
 468 81.3493561435 376.716796875 0 275 0 c 0
 172.168945312 0 82 81.3004375699 82 173 c 2
 82 558 l 2
 82 648.964410559 172.400390625 730 275 730 c 0
 376.487304688 730 468 648.915735298 468 558 c 2
 468 511 l 9
 387 511 l 17
 387 546 l 2
 387 601.994595961 335.301872573 650 275 650 c 0
 214.207277364 650 163 602.450385305 163 546 c 2
 163 173 l 2
 163 121.66394043 213.175928259 80 275 80 c 0
 336.824071741 80 387 121.66394043 387 173 c 2
 387 251 l 9
 257 251 l 25
 257 332 l 25
EndSplineSet
EndChar

StartChar: H
Encoding: 263 72 7
Width: 550
Flags: HW
LayerCount: 2
Fore
SplineSet
388 404 m 1
 162 404 l 1
 162 730 l 9
 82 730 l 17
 82 0 l 9
 162 0 l 17
 162 324 l 1
 388 324 l 1
 388 0 l 9
 468 0 l 17
 468 730 l 9
 388 730 l 17
 388 404 l 1
EndSplineSet
EndChar

StartChar: I
Encoding: 264 73 8
Width: 550
Flags: HW
VStem: 112 326
LayerCount: 2
Fore
SplineSet
112 0 m 1
 438 0 l 1
 438 80 l 1
 315 80 l 1
 315 650 l 1
 438 650 l 1
 438 730 l 1
 112 730 l 1
 112 650 l 1
 235 650 l 1
 235 80 l 1
 112 80 l 1
 112 0 l 1
EndSplineSet
EndChar

StartChar: J
Encoding: 265 74 9
Width: 550
Flags: HW
HStem: 0 80<206.009 352.852> 710 20G<389 469>
VStem: 82 80<127.488 236> 389 80<117.993 730>
LayerCount: 2
Fore
SplineSet
469 730 m 21
 469 190 l 5
 467.918124767 66.6662234775 403.357150452 0 285 0 c 4
 142.045422062 0 82 69.8065005253 82 236 c 5
 162 236 l 5
 162 124.366006561 196.980889789 80 285 80 c 4
 357.651213091 80 389 120.994567496 389 216 c 6
 389 730 l 13
 469 730 l 21
EndSplineSet
EndChar

StartChar: K
Encoding: 266 75 10
Width: 550
Flags: HW
LayerCount: 2
Back
SplineSet
343 730 m 1
 443 730 l 1
 443 -120 l 5
 343 -120 l 5
 343 730 l 1
EndSplineSet
Fore
SplineSet
203 324 m 1
 368 0 l 1
 468 0 l 1
 259.045898438 410.13671875 l 1
 468 730 l 1
 368 730 l 1
 162 430 l 1
 162 730 l 9
 82 730 l 17
 82 0 l 1
 162 0 l 1
 162.927734375 263 l 1
 203 324 l 1
EndSplineSet
EndChar

StartChar: L
Encoding: 267 76 11
Width: 550
Flags: HW
LayerCount: 2
Fore
SplineSet
82 730 m 21
 82 0 l 5
 468 0 l 5
 468 80 l 5
 162 80 l 5
 162 730 l 13
 82 730 l 21
EndSplineSet
EndChar

StartChar: M
Encoding: 268 77 12
Width: 550
Flags: HW
HStem: 0 21G<36 116 434 514> 710 20G<36 122.652 427.403 514>
VStem: 36 80<0 487> 434 80<0 487>
LayerCount: 2
Fore
SplineSet
36 0 m 1029
35.2431640625 730.196289062 m 1045
251 80 m 1029
301 80 m 1029
301 80 m 1029
433.243164062 730.196289062 m 1045
301 80 m 1053
116 0 m 5
 36 0 l 5
 36 730 l 5
 116 730 l 5
 275.655273438 249.9453125 l 5
 434 730 l 5
 514 730 l 5
 514 0 l 5
 434 0 l 5
 434 487 l 5
 301 80 l 5
 251 80 l 5
 116 487 l 5
 116 0 l 5
EndSplineSet
EndChar

StartChar: N
Encoding: 269 78 13
Width: 550
Flags: HW
HStem: 0 21G<82 162 379.423 468> 710 20G<82 170.577 388 468>
VStem: 82 80<0 527> 388 80<203 730>
LayerCount: 2
Fore
SplineSet
162 527 m 9
 162 0 l 1
 82 0 l 17
 82 730 l 25
 162 730 l 17
 388 203 l 9
 388 730 l 1
 468 730 l 17
 468 0 l 25
 388 0 l 17
 162 527 l 9
162 527 m 1041
162 527 m 1025
162 527 m 1025
162 730 m 1025
EndSplineSet
EndChar

StartChar: O
Encoding: 270 79 14
Width: 550
Flags: HW
HStem: 0 80<204.544 346.067> 650 80<208.479 341.942>
VStem: 82 81<119.175 173 546 604.325> 387 81<119.175 173 546 604.325>
LayerCount: 2
Back
SplineSet
57 730 m 5
 443 730 l 5
 443 0 l 5
 57 0 l 5
 57 730 l 5
EndSplineSet
Fore
SplineSet
163 173 m 2
 163 546 l 2
 163 602.450385305 214.207277364 650 275 650 c 0
 335.301872573 650 387 601.994595961 387 546 c 2
 387 173 l 2
 387 121.66394043 336.824071741 80 275 80 c 0
 213.175928259 80 163 121.66394043 163 173 c 2
82 173 m 2
 82 81.3004375699 172.168945312 0 275 0 c 4
 376.716796875 0 468 81.3493561435 468 173 c 2
 468 558 l 2
 468 648.915735298 376.487304688 730 275 730 c 0
 172.400390625 730 82 648.964410559 82 558 c 2
 82 173 l 2
EndSplineSet
EndChar

StartChar: P
Encoding: 271 80 15
Width: 550
Flags: HW
HStem: 0 21G<82 160> 310 80<160 312.065> 650 80<160 326.961>
VStem: 82 78<0 310 390 650> 390 78<454.76 597.673>
LayerCount: 2
Fore
SplineSet
275 650 m 18
 335 650 387 601.994140625 387 546 c 2
 387 483 l 2
 387 431.6640625 337 390 275 390 c 10
 160 390 l 25
 160 650 l 25
 275 650 l 18
275 310 m 22
 377 310 468 391.349609375 468 483 c 2
 468 558 l 2
 468 648.916015625 376 730 275 730 c 10
 82 730 l 25
 82 0 l 25
 160 0 l 25
 160 310 l 25
 275 310 l 22
EndSplineSet
EndChar

StartChar: Q
Encoding: 272 81 16
Width: 550
Flags: HW
HStem: 0 80<204.544 314.368> 650 80<208.479 341.942>
VStem: 82 81<119.175 604.325> 387 81<147.228 604.325>
LayerCount: 2
Back
SplineSet
340.9609375 0 m 21
 227.219726562 194.984375 l 5
 304.845703125 238.517578125 l 5
 443 0 l 5
 340.9609375 0 l 21
EndSplineSet
Fore
SplineSet
382.501953125 146.838867188 m 1
 385.489283301 155.307726628 387 164.094220256 387 173 c 2
 387 546 l 2
 387 601.994595961 335.301872573 650 275 650 c 0
 214.207277364 650 163 602.450385305 163 546 c 2
 163 173 l 2
 163 121.66394043 213.175928259 80 275 80 c 0
 286.138348691 80 296.463133239 82.0649569095 315 88 c 1
 232.219726562 229.984375 l 1
 309.845703125 273.517578125 l 1
 382.501953125 146.838867188 l 1
355.532226562 17.6162109375 m 1
 329.383737879 6.13671989932 300.677734375 0 275 0 c 4
 172.168945312 0 82 81.3004375699 82 173 c 2
 82 558 l 2
 82 648.964410559 172.400390625 730 275 730 c 0
 376.487304688 730 468 648.915735298 468 558 c 2
 468 173 l 2
 468 134.944665944 454.105762892 99.3234916678 427.55078125 69.298828125 c 1
 468 0 l 1
 365.9609375 0 l 1
 355.532226562 17.6162109375 l 1
EndSplineSet
EndChar

StartChar: R
Encoding: 273 82 17
Width: 550
Flags: HWO
HStem: 327.938 75.0615<-905.541 -808.195> 650 80<-964 -804.44>
VStem: -750 78<452.161 604.192>
LayerCount: 2
Fore
SplineSet
448 0 m 25
 209 361 l 25
 102 361 l 25
 342 0 l 25
 448 0 l 25
275 650 m 18
 335 650 387 601.994140625 387 546 c 2
 387 493 l 2
 387 441.6640625 337 410 275 410 c 14
 160 410 l 29
 160 650 l 25
 275 650 l 18
276 330 m 22
 378 330 468 401.349609375 468 493 c 2
 468 558 l 2
 468 648.916015625 377 730 276 730 c 10
 82 730 l 25
 82 0 l 25
 160 0 l 25
 160 330 l 29
 276 330 l 22
EndSplineSet
EndChar

StartChar: S
Encoding: 274 83 18
Width: 550
Flags: HW
HStem: 0 80<209.663 340.05> 650 80<211.085 340.034>
VStem: 82 80<129.91 196 451.957 596.309> 388 80<129.515 270.06> 398 78<558.487 586.84>
LayerCount: 2
Fore
SplineSet
387 539.217773438 m 17
 387 545 l 2
 387 600.997298004 335.304782466 649 275 649 c 0
 214.207277364 649 163 601.450385305 163 545 c 2
 163 493 l 2
 163 441.387886612 213.50515633 399 275.000976562 399 c 1
 376.807504402 399 468 317.729592702 468 227 c 2
 468 173 l 2
 468 81.3488745798 376.716796875 0 275 0 c 0
 172.168945312 0 82 81.2999608791 82 173 c 2
 82 182 l 9
 163 182 l 17
 163 173 l 2
 163 121.831865514 213.378160619 80 275 80 c 0
 336.824071741 80 387 121.66394043 387 173 c 2
 387 215 l 2
 387 270.994315011 335.301570012 319 275 319 c 1
 172.784801165 319 82 400.847437319 82 493 c 2
 82 557 l 2
 82 647.964410559 172.400390625 729 275 729 c 4
 376.487304688 729 468 647.915735298 468 557 c 2
 468 539.921875 l 9
 387 539.217773438 l 17
EndSplineSet
EndChar

StartChar: T
Encoding: 275 84 19
Width: 550
Flags: HW
LayerCount: 2
Fore
SplineSet
82 650 m 21
 235 650 l 5
 235 0 l 9
 315 0 l 17
 315 650 l 5
 468 650 l 5
 468 730 l 5
 82 730 l 13
 82 650 l 21
EndSplineSet
EndChar

StartChar: U
Encoding: 276 85 20
Width: 550
Flags: HW
HStem: 0 80<204.544 346.067>
VStem: 82 81<119.175 173> 387 81<119.175 173>
LayerCount: 2
Fore
SplineSet
82 730 m 17
 82 183 l 2
 82 91.30078125 172.168945312 0 275 0 c 0
 376.716796875 0 468 91.349609375 468 183 c 2
 468 730 l 9
 387 730 l 17
 387 183 l 2
 387 131.6640625 336.824071741 80 275 80 c 0
 213.175928259 80 163 131.6640625 163 183 c 2
 163 730 l 9
 82 730 l 17
EndSplineSet
EndChar

StartChar: V
Encoding: 277 86 21
Width: 550
Flags: HW
HStem: 0 21G<226.918 325.027> 710 20G<82 166.371 383.68 468>
LayerCount: 2
Fore
SplineSet
231 0 m 1025
321 0 m 1025
321 0 m 1025
387.243164062 730.196289062 m 1041
321 0 m 1049
82 730 m 1
 162 730 l 1
 275.655273438 209.9453125 l 5
 388 730 l 1
 468 730 l 1
 321 0 l 1
 231 0 l 1
 82 730 l 1
EndSplineSet
EndChar

StartChar: W
Encoding: 278 87 22
Width: 550
Flags: HW
VStem: 245 70<617.118 650>
LayerCount: 2
Fore
SplineSet
36 730 m 1029
108.243164062 -0.1962890625 m 1045
245 650 m 1029
315 650 m 1029
315 650 m 1029
363.243164062 -0.1962890625 m 1045
315 650 m 1053
116 730 m 5
 36 730 l 5
 109 0 l 5
 189 0 l 5
 275.655273438 376.0546875 l 5
 364 0 l 5
 444 0 l 5
 514 730 l 5
 434 730 l 5
 384 293 l 5
 315 650 l 5
 245 650 l 5
 169 293 l 5
 116 730 l 5
EndSplineSet
EndChar

StartChar: X
Encoding: 279 88 23
Width: 550
Flags: HW
HStem: 710 20G<82 181.469 368.531 468>
LayerCount: 2
Fore
SplineSet
346.106445312 366 m 5
 468 2 l 1
 375 2 l 1
 275 311.146484375 l 1
 175 2 l 1
 82 2 l 1
 203.052734375 366 l 1
 82 730 l 1
 175 730 l 1
 275 420.853515625 l 1
 375 730 l 1
 468 730 l 1
 346.106445312 366 l 5
EndSplineSet
EndChar

StartChar: Y
Encoding: 280 89 24
Width: 550
Flags: HW
HStem: 0 21G<226 323> 710 20G<82 181.469 368.531 468>
VStem: 226 97<0 297>
LayerCount: 2
Fore
SplineSet
226 297 m 5
 82 730 l 5
 175 730 l 5
 275 420.853515625 l 5
 375 730 l 5
 468 730 l 5
 323 297 l 5
 323 0 l 5
 226 0 l 5
 226 297 l 5
EndSplineSet
EndChar

StartChar: Z
Encoding: 281 90 25
Width: 550
Flags: HW
HStem: 0 80<185 468> 650 80<82 365>
LayerCount: 2
Fore
SplineSet
185 80 m 13
 468 80 l 5
 468 0 l 21
 82 0 l 29
 82 80 l 21
 365 650 l 13
 82 650 l 5
 82 730 l 21
 468 730 l 29
 468 650 l 21
 185 80 l 13
185 80 m 1045
185 80 m 1029
185 80 m 1029
82 80 m 1029
EndSplineSet
EndChar

StartChar: bracketleft
Encoding: 282 91 26
Width: 550
Flags: HW
HStem: -120 90<232 398> 640 90<232 398>
VStem: 142 256<-120 -30 640 730> 142 90<-30 640>
LayerCount: 2
Fore
SplineSet
232 -30 m 5xd0
 398 -30 l 5
 398 -120 l 5
 142 -120 l 5
 142 730 l 5
 398 730 l 5
 398 640 l 5xe0
 232 640 l 5
 232 -30 l 5xd0
EndSplineSet
EndChar

StartChar: backslash
Encoding: 283 92 27
Width: 550
Flags: HW
HStem: 0 21G<361.137 468> 710 20G<82 188.863>
LayerCount: 2
Fore
SplineSet
369 0 m 5
 82 730 l 5
 181 730 l 5
 468 0 l 5
 369 0 l 5
EndSplineSet
EndChar

StartChar: bracketright
Encoding: 284 93 28
Width: 550
Flags: HW
VStem: 147 256
LayerCount: 2
Fore
SplineSet
313 -30 m 5
 147 -30 l 5
 147 -120 l 5
 403 -120 l 5
 403 730 l 5
 147 730 l 5
 147 640 l 5
 313 640 l 5
 313 -30 l 5
EndSplineSet
EndChar

StartChar: asciicircum
Encoding: 285 94 29
Width: 550
Flags: HW
LayerCount: 2
Fore
SplineSet
275 596 m 29
 379 369 l 1
 468 369 l 1
 275 800 l 1
 82 369 l 9
 171 369 l 1
 275 596 l 29
EndSplineSet
EndChar

StartChar: underscore
Encoding: 286 95 30
Width: 550
Flags: HW
HStem: 0 100
LayerCount: 2
Fore
SplineSet
510 100 m 25
 40 100 l 25
 40 0 l 25
 510 0 l 25
 510 100 l 25
EndSplineSet
EndChar

StartChar: grave
Encoding: 287 96 31
Width: 550
Flags: HW
HStem: 526 274
VStem: 126.5 297
LayerCount: 2
Fore
SplineSet
126.5 800 m 21
 272.5 800 l 5
 423.5 526 l 5
 317.5 526 l 5
 126.5 800 l 21
EndSplineSet
EndChar

StartChar: a
Encoding: 288 97 32
Width: 550
Flags: HW
HStem: 0 78<203.695 360.705> 246 60<193.944 367.471> 451.286 74.7139<194.818 352.58>
VStem: 82 81<115.376 218.433 370 422.073> 387 80.9785<0 40 103.361 225.954 306 419.387>
LayerCount: 2
Fore
SplineSet
163 158 m 0
 163 118.848849578 218.145946931 78 271 78 c 0
 324.49867784 78 352.742602222 88.5316328207 389 122 c 1
 388 209 l 1
 368.775861086 231.921088705 318.928904879 246 257 246 c 0
 199.051395954 246 163 212.24975698 163 158 c 0
387 358 m 2
 387 393.313367642 372.293945312 451.379882812 275 451 c 0
 206.291015625 450.73046875 162 419.156126132 162 370 c 1
 82 370 l 1
 82 411.263656049 106.947415875 460.32690727 142 488 c 0
 179.155375504 517.333191187 209.489206349 526 275 526 c 4
 349.603594308 526 390.993250988 512.381467802 430 475 c 0
 456.221550658 449.871013953 467.795138477 414.216387844 467.978515625 358 c 2
 468 0 l 1
 387 0 l 1
 386.928710938 40 l 1
 365.882159349 16.5685424949 316.620274323 0 268 0 c 0
 160.838309568 0 82 72.4803813774 82 171 c 0
 82 235.330351626 119.776725385 291.601932147 178 314 c 0
 261.57421875 346.150390625 371 306 387 306 c 1
 387 358 l 2
EndSplineSet
EndChar

StartChar: b
Encoding: 289 98 33
Width: 550
Flags: HW
HStem: 0 21G<82.0209 163> 21 60<183.422 356.056> 450 78<191.031 347.306> 710 20G<82 163>
VStem: 82.0215 80.9785<0 21 102.045 423.429 488 730> 387 81<109.131 411.514>
LayerCount: 2
Fore
SplineSet
163 406 m 1x7c
 163 118 l 1
 182.271694362 95.0222105687 231.538920684 81 293 81 c 0
 349.762605647 81 387 114.672111915 387 166 c 2
 387 353 l 2
 387 408.152061593 340.406419093 450 279 450 c 4
 226.352163108 450 199.725076466 439.900070584 163 406 c 1x7c
82.021484375 0 m 17xbc
 82 730 l 1
 163 730 l 1
 163.071289062 488 l 1
 184.117840651 511.431457505 233.379725677 528 282 528 c 0
 368.987119662 528 468 450.812539522 468 383 c 2
 468 148 l 2
 468 86.7224903875 431.984861607 36.0762020221 372 13 c 0
 288.42578125 -19.150390625 179 21 163 21 c 1
 163 0 l 9
 82.021484375 0 l 17xbc
EndSplineSet
EndChar

StartChar: c
Encoding: 290 99 34
Width: 550
Flags: HW
HStem: 0 78<203.794 342.627> 451 78<212.438 342.627>
VStem: 82 81<115.378 170 347 403.746> 387 80.9893<123.697 169 360 405.303>
LayerCount: 2
Fore
SplineSet
82 170 m 2
 82 80.5638818104 175.83322705 0 280 0 c 0
 377.516641655 0 467.991398055 81.3356784829 467.989257812 169 c 1
 387 169 l 1
 387 125.978948858 330.112304688 78 280 78 c 0
 212.515625 78 163 116.52850373 163 168 c 2
 163 347 l 2
 163 401.681233804 217.958007812 451 280 451 c 4
 330.112304688 451 387 403.021051142 387 360 c 1
 467.989257812 360 l 1
 467.991398055 447.664321517 377.516641655 529 280 529 c 0
 175.83322705 529 82 448.43611819 82 359 c 2
 82 170 l 2
EndSplineSet
EndChar

StartChar: d
Encoding: 291 100 35
Width: 550
Flags: HW
HStem: 21 60<193.944 366.578> 450 78<202.694 359.861>
VStem: 82 81<109.131 166 353 411.514> 387 80.9785<102.045 118 407 424.336>
LayerCount: 2
Fore
SplineSet
387 407 m 1
 387 118 l 1
 367.728305638 95.0222105687 318.461079316 81 257 81 c 0
 200.237394353 81 163 114.672111915 163 166 c 2
 163 353 l 2
 163 408.152061593 209.593580907 450 271 450 c 0
 324.800935675 450 350.895890706 440.326870118 387 407 c 1
467.978515625 0 m 17
 468 730 l 5
 387 730 l 5
 386.928710938 488 l 1
 365.882159349 511.431457505 316.620274323 528 268 528 c 0
 181.012880338 528 82 450.812539522 82 383 c 2
 82 148 l 2
 82 86.7224903875 118.015138393 36.0762020221 178 13 c 0
 261.57421875 -19.150390625 371 21 387 21 c 1
 387 0 l 9
 467.978515625 0 l 17
EndSplineSet
EndChar

StartChar: e
Encoding: 292 101 36
Width: 550
Flags: HW
HStem: 0 78<212.438 350.027> 451 78<212.438 342.627>
VStem: 82 81<125.254 182 347 403.746> 387 80.9893<112.705 153 360 405.303>
LayerCount: 2
Fore
SplineSet
387 360 m 2
 387 300 l 1
 163 300 l 1
 163 347 l 2
 163 401.681233804 212.958007812 451 275 451 c 0
 325.112304688 451 387 403.021051142 387 360 c 2
467.989257812 360 m 2
 467.991398055 447.664321517 372.516601562 529 275 529 c 0
 170.833007812 529 82 448.43611819 82 359 c 10
 82 170 l 18
 82 80.5638818104 170.833007812 0 275 0 c 0
 385.334960938 0 467.9911349 54.1145125416 467.989257812 131 c 1
 387 131 l 1
 387 102.06599432 332.868164062 78 275 78 c 0
 212.958007812 78 163 127.318766196 163 182 c 2
 163 220 l 1
 468 220 l 1
 467.989257812 360 l 2
EndSplineSet
EndChar

StartChar: f
Encoding: 293 102 37
Width: 550
Flags: HW
HStem: 0 21G<235 315> 446 80<82 235 315 468>
VStem: 235 80<0 446>
LayerCount: 2
Fore
SplineSet
232 526 m 29
 232 569 l 22
 232 699 286 730 439 730 c 14
 468 730 l 29
 468 645 l 29
 448 645 l 22
 337 645 318 635 318 541 c 14
 318 526 l 29
 468 526 l 29
 468 446 l 29
 318 446 l 29
 318 0 l 29
 232 0 l 29
 232 446 l 29
 82 446 l 29
 82 526 l 29
 232 526 l 29
EndSplineSet
EndChar

StartChar: g
Encoding: 294 103 38
Width: 550
Flags: HW
HStem: -170 76.7139<191.504 353.375> 72 60<193.944 367.471> 448 78<202.694 360.705>
VStem: 82 81<-65.1367 0 160.131 217 351 409.514> 387 80.9785<-60.5301 0 152.046 169 404 422.639>
LayerCount: 2
Fore
SplineSet
389 404 m 5
 388 169 l 5
 368.775861086 146.078911295 318.928904879 132 257 132 c 4
 200.237394353 132 163 165.672111915 163 217 c 6
 163 351 l 6
 163 406.152061593 209.593580907 448 271 448 c 4
 324.49867784 448 352.742602222 437.468367179 389 404 c 5
82 -3 m 6
 82 -167.846268326 219.782127573 -170 275 -170 c 4
 349.374495482 -170 391.354428818 -155.645571182 430 -117 c 4
 457.774119032 -89.2258809683 467.788094054 -58.3759370366 467.978515625 0 c 6
 468 526 l 5
 387 526 l 5
 386.928710938 486 l 5
 365.882159349 509.431457505 316.620274323 526 268 526 c 4
 181.012880338 526 82 448.812539522 82 381 c 6
 82 199 l 6
 82 137.722490388 118.015138393 87.0762020221 178 64 c 4
 261.57421875 31.849609375 371 72 387 72 c 5
 387 0 l 6
 387 -34.6892082121 372.561267534 -93.2861328125 275 -93.2861328125 c 4
 197.715577075 -93.2861328125 169.416297333 -69.9239171627 162 0 c 5
 82 0 l 5
 82 -3 l 6
EndSplineSet
EndChar

StartChar: h
Encoding: 295 104 39
Width: 550
Flags: HW
VStem: 82 81<328 388.965 730 730> 387 81<306 398.959>
LayerCount: 2
Fore
SplineSet
387 306 m 2
 387 0 l 1
 468 0 l 1
 468 330 l 2
 468 447.958569673 405.648512951 530 316 530 c 0
 211.096679688 530 160.965820312 451.006835938 161 456 c 2
 163 730 l 1
 82 730 l 1
 82 0 l 1
 163 0 l 1
 163 328 l 2
 163 357.005334221 181.165940099 392.098627593 207 413 c 0
 302.66639221 490.402808243 387 440.271163612 387 306 c 2
EndSplineSet
EndChar

StartChar: i
Encoding: 296 105 40
Width: 550
Flags: HW
HStem: 0 82<327.293 450.369> 625 129<193.136 336.864>
VStem: 170 190<647.289 732.327> 235 80<93.3497 141>
LayerCount: 2
Fore
SplineSet
170 690 m 0xe0
 170 727.297014498 209.637244104 754 265 754 c 0
 320.362755896 754 360 727.297014498 360 690 c 0
 360 652.465640845 319.857909535 625 265 625 c 0
 210.142090465 625 170 652.465640845 170 690 c 0xe0
375 82 m 0
 351.637201508 82 315 82 315 141 c 2
 315 528 l 1
 82 528 l 1
 82 448 l 1
 235 448 l 1
 235 141 l 2xd0
 235 89.3323747973 245.072017753 55.0245643273 267 32 c 0
 284.895721459 13.2094924682 318.332249269 0 348 0 c 0
 378.109083706 0 412.560668959 2.48871517906 468 24 c 1
 445 98 l 1
 429 93.3544921875 405 82 375 82 c 0
EndSplineSet
EndChar

StartChar: j
Encoding: 297 106 41
Width: 550
Flags: HW
HStem: -165 92<213.172 327.382> 448 80<125.5 344.5> 625 129<293.136 436.864>
VStem: 270 190<647.289 732.327> 343.5 80<-48.5196 448>
LayerCount: 2
Fore
SplineSet
270 690 m 4xf0
 270 727.297014498 309.637244104 754 365 754 c 4
 420.362755896 754 460 727.297014498 460 690 c 4
 460 652.465640845 419.857909535 625 365 625 c 4
 310.142090465 625 270 652.465640845 270 690 c 4xf0
385.5 -126 m 0
 360.924169179 -151.804622362 331.319155247 -165 298 -165 c 0
 266.084568348 -165 212.898139182 -165 115.5 -92 c 1
 162.5 -18 l 1
 181 -30 191 -37.5 206 -47 c 0
 229.862217682 -62.1130204931 261.26696626 -73 281 -73 c 0
 301.458432687 -73 343.402952348 -56.0848829318 343.5 -7 c 2
 344.5 448 l 1
 125.5 448 l 1
 125.5 528 l 1
 424.5 529 l 1
 423.5 -29 l 2xe8
 423.428160434 -72.9843301207 414.649655853 -95.3926181285 385.5 -126 c 0
EndSplineSet
EndChar

StartChar: k
Encoding: 298 107 42
Width: 550
Flags: HW
LayerCount: 2
Fore
SplineSet
163 288 m 1
 163 730 l 5
 82 730 l 5
 82 0 l 1
 163 0 l 1
 163 159 l 1
 220.772460938 223.571289062 l 1
 370.844726562 0 l 1
 470.844726562 0 l 1
 277 286 l 1
 468.0859375 500.861328125 l 1
 351.000976562 501 l 1
 163 288 l 1
EndSplineSet
EndChar

StartChar: l
Encoding: 299 108 43
Width: 550
Flags: HW
HStem: 0 82<327.293 450.369>
VStem: 235 80<93.3497 141>
LayerCount: 2
Fore
SplineSet
375 82 m 4
 351.637201508 82 315 82 315 141 c 6
 315 730 l 5
 82 730 l 5
 82 650 l 5
 235 650 l 5
 235 141 l 6
 235 89.3323747973 245.072017753 55.0245643273 267 32 c 4
 284.895721459 13.2094924682 318.332249269 0 348 0 c 4
 378.109083706 0 412.560668959 2.48871517906 468 24 c 5
 445 98 l 5
 429 93.3544921875 405 82 375 82 c 4
EndSplineSet
EndChar

StartChar: m
Encoding: 300 109 44
Width: 550
Flags: HW
HStem: 454 72<124.709 226.242 324.724 423.953>
VStem: 36 80<413 443.112> 235 80<412 441.719> 434 80<382.513 440.444>
CounterMasks: 1 70
LayerCount: 2
Fore
SplineSet
315 412 m 1025
116 413 m 2
 116 433.076318158 146.109688504 454 175 454 c 0
 204.134245362 454 235 432.908400998 235 413 c 2
 235 -0.212890625 l 1
 315 0 l 1
 315 412 l 2
 315 432.076318158 345.109688504 453 374 453 c 0
 403.067639903 453 434 431.954012872 434 412.176757812 c 2
 434 -0.212890625 l 1
 514 0 l 17
 514 382.512695312 l 2
 514 466.110110154 456.138111206 525 374 525 c 0
 337.367150217 525 297.916972142 512.68752404 275.26171875 494.18359375 c 1
 252.110478351 513.318609568 212.14813971 526 175 526 c 0
 154.679466027 526 130.170652989 522.396860477 116 517.326171875 c 1
 116 526 l 1
 36 526 l 17
 36 -0.212890625 l 1
 116 0 l 1
 116 413 l 2
514 382.512695312 m 1025
434 412.176757812 m 1025
434 -0.212890625 m 1025
  Spiro
    434 -0.212891 {
    0 0 z
  EndSpiro
36 -0.212890625 m 1025
  Spiro
    36 -0.212891 {
    0 0 z
  EndSpiro
235 -0.212890625 m 1025
  Spiro
    235 -0.212891 {
    0 0 z
  EndSpiro
EndSplineSet
EndChar

StartChar: n
Encoding: 301 110 45
Width: 550
Flags: HW
HStem: 446 80<204.318 343.63>
VStem: 82 80<342 404.65> 388 80<341.177 399.163>
LayerCount: 2
Fore
SplineSet
162 490 m 5
 162 526 l 5
 82 526 l 21
 82 -0.212890625 l 5
 162 0 l 5
 162 342 l 6
 162 401.350147121 210.513782455 446 275 446 c 4
 338.198987938 446 388 399.802623464 388 341.176757812 c 6
 388 -0.212890625 l 5
 468 0 l 21
 468 342.512695312 l 6
 468 446.029039939 383.883034425 526 275 526 c 4
 228.722871427 526 181.916738879 511.088311755 162 490 c 5
468 342.512695312 m 1029
388 341.176757812 m 1029
388 -0.212890625 m 1029
  Spiro
    388 -0.212891 {
    0 0 z
  EndSpiro
82 -0.212890625 m 1029
  Spiro
    82 -0.212891 {
    0 0 z
  EndSpiro
EndSplineSet
EndChar

StartChar: o
Encoding: 302 111 46
Width: 550
Flags: HW
HStem: 0 80<204.544 346.067> 449 80<208.479 341.942>
VStem: 82 81<119.175 173 345 403.325> 387 81<119.175 173 345 403.325>
LayerCount: 2
Fore
SplineSet
163 173 m 2
 163 345 l 2
 163 401.450385305 214.20703125 449 275 449 c 0
 335.301757812 449 387 400.994595961 387 345 c 2
 387 173 l 2
 387 121.66394043 336.824071741 80 275 80 c 0
 213.175928259 80 163 121.66394043 163 173 c 2
82 173 m 2
 82 81.3004375699 173.169276812 0 276 0 c 0
 377.716321506 0 468 81.3493561435 468 173 c 2
 468 357 l 2
 468 447.915735298 376.487304688 529 275 529 c 4
 172.400390625 529 82 447.964410559 82 357 c 2
 82 173 l 2
EndSplineSet
EndChar

StartChar: p
Encoding: 303 112 47
Width: 550
Flags: HW
HStem: -170 21G<82.0209 163> 72 60<182.529 356.056> 452 78<189.295 347.306>
VStem: 82.0215 80.9785<-170 72 152.046 426.639 490 530> 387 81<160.131 413.514>
LayerCount: 2
Fore
SplineSet
161 408 m 1
 162 169 l 1
 181.224138914 146.078911295 231.071095121 132 293 132 c 0
 349.762605647 132 387 165.672111915 387 217 c 2
 387 355 l 2
 387 410.152061593 340.406419093 452 279 452 c 0
 225.50132216 452 197.257397778 441.468367179 161 408 c 1
82.021484375 -170 m 17
 82 530 l 1
 163 530 l 1
 163.071289062 490 l 1
 184.117840651 513.431457505 233.379725677 530 282 530 c 0
 368.987119662 530 468 452.812539522 468 385 c 2
 468 199 l 2
 468 137.722490388 431.984861607 87.0762020221 372 64 c 0
 288.42578125 31.849609375 179 72 163 72 c 1
 163 -170 l 9
 82.021484375 -170 l 17
EndSplineSet
EndChar

StartChar: q
Encoding: 304 113 48
Width: 550
Flags: HW
HStem: 72 60<193.944 367.471> 452 78<202.694 360.705>
VStem: 82 81<160.131 217 355 413.514> 387 80.9785<152.046 169 408 426.639>
LayerCount: 2
Fore
SplineSet
389 408 m 1
 388 169 l 5
 368.775861086 146.078911295 318.928904879 132 257 132 c 4
 200.237394353 132 163 165.672111915 163 217 c 6
 163 355 l 2
 163 410.152061593 209.593580907 452 271 452 c 0
 324.49867784 452 352.742602222 441.468367179 389 408 c 1
467.978515625 -170 m 17
 468 530 l 1
 387 530 l 1
 386.928710938 490 l 1
 365.882159349 513.431457505 316.620274323 530 268 530 c 0
 181.012880338 530 82 452.812539522 82 385 c 2
 82 199 l 6
 82 137.722490388 118.015138393 87.0762020221 178 64 c 4
 261.57421875 31.849609375 371 72 387 72 c 5
 387 -170 l 9
 467.978515625 -170 l 17
EndSplineSet
EndChar

StartChar: r
Encoding: 305 114 49
Width: 550
Flags: HW
HStem: 446 80<211.452 366.763>
VStem: 82 80<342 401.273>
LayerCount: 2
Fore
SplineSet
389 370 m 1
 389 409.433541642 337.999413343 446 283 446 c 0
 210.586842759 446 161.839895333 403.296062586 162 340 c 6
 162 0 l 1
 82 -0.212890625 l 1
 82 526 l 9
 162 526 l 1
 162 490 l 1
 181.330952442 511.088311755 230.622366364 526 281 526 c 0
 389.533994989 526 468 460.54172844 468 370 c 1
 389 370 l 1
82 -0.212890625 m 1025
  Spiro
    82 -0.212891 {
    0 0 z
  EndSpiro
EndSplineSet
EndChar

StartChar: s
Encoding: 306 115 50
Width: 550
Flags: HW
HStem: 0 74.7139<201.343 348.542> 220 80<189.85 355.648> 451.286 74.7139<201.458 348.657>
VStem: 82 80<111.69 148 328.03 415.112> 388 80<110.888 191.531 378 414.31>
LayerCount: 2
Fore
SplineSet
275 220 m 0
 152.749023438 220 82 275.961161387 82 370 c 0
 82 458.891926728 165.024731676 526 275 526 c 0
 378.088193631 526 468.006353577 457.039537594 467.978515625 378 c 1
 387 378 l 1
 387 413.725215709 329.740234375 451.509765625 275 451.286132812 c 0
 216.702148438 451.047851562 162 412.072164089 162 370 c 0
 162 327.775252108 206.234375 300 275 300 c 0
 388.478515625 300 468 241.108850655 468 156 c 0
 468 67.1080319394 384.97531946 0 275 0 c 4
 171.9116927 0 81.9936463924 68.9603752544 82.021484375 148 c 1
 163 148 l 1
 163 112.274844273 220.259765625 74.490234375 275 74.7138671875 c 0
 333.296875 74.9521484375 388 113.928054316 388 156 c 0
 388 190.071718551 334.092773438 220 275 220 c 0
EndSplineSet
EndChar

StartChar: t
Encoding: 307 116 51
Width: 550
Flags: HW
HStem: 0 82<327.293 450.369>
VStem: 235 80<93.3497 141>
LayerCount: 2
Fore
SplineSet
267 32 m 0
 284.895721459 13.2094924682 318.332249269 0 348 0 c 0
 378.109083706 0 412.560668959 2.48871517906 468 24 c 1
 445 98 l 1
 429 93.3544921875 405 82 375 82 c 0
 351.08639387 82 326.480455577 82 317.438476562 119 c 0
 315.552734375 126.71484375 316 135 315 141 c 1
 315 448 l 1
 467.990546875 448 l 1
 467.9921875 528 l 1
 315 528 l 1
 315 691 l 5
 235 691 l 5
 235 528 l 1
 82 528 l 1
 82 448 l 1
 235 448 l 1
 235 141 l 2
 235 89.3323747973 245.072017753 55.0245643273 267 32 c 0
EndSplineSet
EndChar

StartChar: u
Encoding: 308 117 52
Width: 550
Flags: HW
HStem: 0 80<204.544 346.296>
VStem: 82 81<119.175 173> 387 81<119.175 173>
LayerCount: 2
Fore
SplineSet
468 0 m 1
 468 526 l 1
 387 526 l 1
 387 173 l 2
 387 121.66394043 336.824071741 80 275 80 c 0
 213.175928259 80 163 121.66394043 163 173 c 2
 163 526 l 1
 82 526 l 1
 82 173 l 2
 82 81.3004375699 172.168945312 0 275 0 c 0
 311.8125 0 353.147202995 12.5701925229 387 34.5931482555 c 9
 387 0 l 1
 468 0 l 1
EndSplineSet
EndChar

StartChar: v
Encoding: 309 118 53
Width: 550
Flags: HW
LayerCount: 2
Fore
SplineSet
162 526 m 29
 82 526 l 21
 235 0 l 13
 315 0 l 5
 468 526 l 29
 388 526 l 29
 275 137 l 29
 162 526 l 29
162 526 m 1053
234.243164062 -0.1962890625 m 1045
162 526 m 1029
162 526 m 1029
82 526 m 1029
EndSplineSet
EndChar

StartChar: w
Encoding: 310 119 54
Width: 550
Flags: HW
VStem: 235 90<490.682 526>
LayerCount: 2
Fore
SplineSet
36 526 m 1025
128.243164062 -0.1962890625 m 1041
240 526 m 1025
320 526 m 1025
320 526 m 1025
348.243164062 -0.1962890625 m 1041
320 526 m 1049
116 526 m 1
 36 526 l 1
 129 0 l 1
 204 0 l 1
 275.655737705 296.054644809 l 1
 349 0 l 1
 424 0 l 1
 514 526 l 1
 434 526 l 1
 384 193 l 1
 320 526 l 1
 240 526 l 1
 169 193 l 1
 116 526 l 1
EndSplineSet
EndChar

StartChar: x
Encoding: 311 120 55
Width: 550
Flags: HW
LayerCount: 2
Fore
SplineSet
315 269 m 5
 468 526 l 29
 388 526 l 29
 275 340 l 29
 162 526 l 29
 82 526 l 21
 235 269 l 5
 82 2 l 13
 162 2 l 29
 275 188 l 29
 388 2 l 29
 468 2 l 29
 315 269 l 5
162 2 m 1045
162 2 m 1029
162 2 m 1029
82 2 m 1029
EndSplineSet
EndChar

StartChar: y
Encoding: 312 121 56
Width: 550
Flags: HW
LayerCount: 2
Back
SplineSet
255.5 56 m 1
 228.5 -36 l 2
 219.8203125 -66.376953125 209.255859375 -73.748046875 142.5 -96 c 1
 191.5 -170 l 1
 238.948242188 -170 280.370117188 -141.004882812 291.5 -100 c 2
 467.5 526 l 1
 387.5 526 l 1
 288.708984375 175.813476562 l 1
 161.5 526 l 1
 81.5 526 l 1
 255.5 56 l 1
191.5 -170 m 1048
EndSplineSet
Fore
SplineSet
226.34375 92.5126953125 m 5
 226.372070312 92.5185546875 178.5 -36 178.5 -36 c 5
 169.8203125 -66.376953125 159.255859375 -73.748046875 92.5 -96 c 5
 141.5 -170 l 5
 188.948242188 -170 230.370117188 -141.004882812 241.5 -100 c 6
 467.5 526 l 5
 387.5 526 l 5
 270.5 220 l 5
 167.5 535 l 5
 82.5 535 l 5
 226.34375 92.5126953125 l 5
141.5 -170 m 1052
EndSplineSet
EndChar

StartChar: z
Encoding: 313 122 57
Width: 550
Flags: HW
HStem: 0 80<185 468> 446 80<82 365>
LayerCount: 2
Fore
SplineSet
185 80 m 13
 468 80 l 5
 468 0 l 21
 82 0 l 29
 82 80 l 21
 365 446 l 13
 82 446 l 5
 82 526 l 21
 468 526 l 29
 468 446 l 21
 185 80 l 13
185 80 m 1045
185 80 m 1029
185 80 m 1029
82 80 m 1029
EndSplineSet
EndChar

StartChar: zero
Encoding: 713 48 457
Width: 550
Flags: HW
HStem: 2 78<226.613 323.64> 650 80<226.364 323.261>
VStem: 81.7119 80.7119<248.773 546.366> 388 80<183.951 482.008>
LayerCount: 2
Back
SplineSet
56.7109375 730 m 5
 442.7109375 730 l 5
 442.7109375 0 l 5
 56.7109375 0 l 5
 56.7109375 730 l 5
EndSplineSet
Fore
SplineSet
342.513671875 605 m 1
 324.64661934 635.025461603 302.273203117 650 275.279296875 650 c 0
 202.32506599 650 162.567382812 541.356947304 162.567382812 342 c 0
 162.567382812 305.469164909 163.593259603 274.308117174 165.681640625 247.404296875 c 1
 342.513671875 605 l 1
385.4375 484 m 1
 207.859375 125.168945312 l 1
 225.706627704 95.1767571922 248.410896339 80 275.431640625 80 c 0
 348.386160937 80 388.14453125 188.643989064 388.14453125 388 c 0
 388.14453125 430.284135098 387.30911757 459.910580401 385.4375 484 c 1
274.85546875 730 m 0
 407.513431441 730 468.14453125 622.721109687 468.14453125 388 c 0
 468.14453125 133.919422802 402.086029802 2 274.85546875 2 c 0
 142.301599469 2 81.85546875 108.485411629 81.85546875 342 c 0
 81.85546875 596.577473849 148.222859335 730 274.85546875 730 c 0
EndSplineSet
EndChar

StartChar: one
Encoding: 714 49 458
Width: 550
Flags: HW
LayerCount: 2
Fore
SplineSet
315 80 m 1
 315 730 l 1
 235 730 l 1
 102 590 l 1
 102 470 l 1
 235 610 l 1
 235 80 l 1
 105 80 l 1
 105 0 l 1
 445 0 l 1
 445 80 l 1
 315 80 l 1
235 80 m 1025
315 80 m 1025
EndSplineSet
EndChar

StartChar: two
Encoding: 715 50 459
Width: 550
Flags: HW
HStem: 0 80<185.057 468> 650 80<207.51 343.297>
VStem: 82.0566 90<494 607.737>
LayerCount: 2
Fore
SplineSet
377 546 m 16
 377 601.994140625 335.301757812 650 275 650 c 0
 214.20703125 650 173 602 172 546 c 10
 172 504 l 25
 82 504 l 25
 82 558 l 18
 82 650 172.400390625 730 275 730 c 0
 376.487304688 730 468 648.916015625 468 558 c 8
 468 524.758789062 462 505 444 477 c 26
 185.056640625 80 l 17
 468 80 l 1
 468 0 l 1
 82 0 l 1
 82.056640625 80 l 9
 354 487 l 18
 362.012695312 498.991210938 377 521.301757812 377 546 c 16
EndSplineSet
EndChar

StartChar: three
Encoding: 716 51 460
Width: 550
Flags: HW
HStem: 0 78<207.373 346.206> 327 80<179 284.69> 652 78<207.373 337.562>
VStem: 82.0107 80.9893<123.697 169 561 606.303> 387 81<115.516 238.592 488.611 605.385>
LayerCount: 2
Fore
SplineSet
183 331 m 1
 183 418 l 1
 333.855682544 418 387 453.169033611 387 553 c 0
 387 629.200352113 358.670974869 655 275 655 c 0
 191.867206724 655 162.908758513 630.882859142 163.331054688 562 c 1
 82 562 l 1
 82 685.067007869 137.705592378 735 275 735 c 0
 413.759063573 735 468 682.726351423 468 549 c 0
 468 458.14508218 465.471679688 419.28515625 349 371 c 1
 459.592773438 325.310546875 468 277.624103234 468 186 c 0
 468 62.9160542684 402.716137238 0 275 0 c 0
 148.609852419 0 82 59.7072770388 82 173 c 1
 163.331054688 173 l 1
 163.053084432 110.86585822 200.114996621 80 275 80 c 0
 348.696777069 80 387 114.883292312 387 182 c 0
 387 289.37922618 330.015853293 331 183 331 c 1
EndSplineSet
EndChar

StartChar: four
Encoding: 717 52 461
Width: 550
Flags: HW
LayerCount: 2
Fore
SplineSet
375 0 m 21
 375 730 l 5
 295 730 l 1
 82 270 l 1
 82 190 l 1
 468 190 l 1
 468 270 l 1
 165.5 270 l 1
 295 560 l 1
 295 0 l 9
 375 0 l 21
EndSplineSet
EndChar

StartChar: five
Encoding: 718 53 462
Width: 550
Flags: HW
LayerCount: 2
Fore
SplineSet
82 142.594726562 m 1025
83 369 m 17
 306 369 l 2
 360.268897328 369 388 337.210687181 388 275 c 2
 387 173 l 2
 387 121.66394043 336.824071741 80 275 80 c 0
 213.175928259 80 163 121.66394043 163 173 c 1
 82 173 l 1
 82 81.3004375699 172.168945312 0 275 0 c 4
 376.716796875 0 468 81.3493561435 468 173 c 2
 469 287 l 2
 469 382.141336004 402.141336004 449 307 449 c 2
 163 449 l 9
 162 650 l 25
 468 650 l 25
 468 730 l 25
 82 730 l 25
 83 369 l 17
EndSplineSet
EndChar

StartChar: six
Encoding: 719 54 463
Width: 550
Flags: HW
LayerCount: 2
Fore
SplineSet
82 173 m 2
 82 81.3004375699 173.169276812 0 276 0 c 0
 377.716321506 0 468 81.3493561435 468 173 c 2
 468 257 l 2
 468 347.915735298 377.487332426 429 276 429 c 0
 238.481006874 429 197.349652346 416.243133664 162.943359375 393.935546875 c 1
 163 545 l 2
 163 601.450385305 214.207277364 649 275 649 c 0
 335.301872573 649 387 600.994595961 387 545 c 2
 387 535 l 1
 468 535 l 1
 468 557 l 2
 468 647.915735298 377.487332426 729 276 729 c 0
 173.400606695 729 82 647.964410559 82 557 c 2
 82 173 l 2
163 173 m 2
 163 245 l 2
 163 301.450385305 214.207277364 349 275 349 c 0
 335.301872573 349 387 300.994595961 387 245 c 2
 387 173 l 2
 387 121.66394043 336.824071741 80 275 80 c 0
 213.175928259 80 163 121.66394043 163 173 c 2
EndSplineSet
EndChar

StartChar: seven
Encoding: 720 55 464
Width: 550
Flags: HW
HStem: 0 21G<222 331.836> 650 80<82 362>
LayerCount: 2
Fore
SplineSet
132 0 m 21
 352 650 l 1
 82 650 l 1
 82 730 l 1
 468 730 l 1
 228 0 l 13
 132 0 l 21
EndSplineSet
EndChar

StartChar: eight
Encoding: 721 56 465
Width: 550
Flags: HW
LayerCount: 2
Fore
SplineSet
163 518 m 2
 163 545 l 2
 163 601.450385305 214.207277364 649 275 649 c 0
 335.301872573 649 387 600.994595961 387 545 c 2
 387 518 l 2
 387 466.6640625 336.82421875 425 275 425 c 0
 213.17578125 425 163 466.6640625 163 518 c 2
82 518 m 2
 82 426.11328125 172.490234375 345 275 345 c 0
 377.038085938 345 468 426.536132812 468 518 c 2
 468 557 l 2
 468 647.915735298 377.487332426 729 276 729 c 0
 173.400606695 729 82 647.964410559 82 557 c 2
 82 518 l 2
163 173 m 2
 163 240 l 2
 163 296.450195312 214.20703125 344 275 344 c 0
 335.301757812 344 387 295.994140625 387 240 c 2
 387 173 l 2
 387 121.6640625 336.824071741 80 275 80 c 0
 213.175928259 80 163 121.6640625 163 173 c 2
82 173 m 2
 82 81.2998046875 173.168742257 0 276 0 c 0
 377.716855958 0 468 81.3486328125 468 173 c 2
 468 252 l 2
 468 342.729492188 376.807617188 424 275 424 c 0
 172.720703125 424 82 343.150390625 82 252 c 2
 82 173 l 2
EndSplineSet
EndChar

StartChar: nine
Encoding: 722 57 466
Width: 550
Flags: HW
LayerCount: 2
Fore
SplineSet
397 326 m 1
 223 0 l 1
 132 0 l 1
 284 301 l 1
 179.305991536 301 82 383.854606654 82 473 c 2
 82 557 l 2
 82 648.650643857 173.283203125 730 275 730 c 0
 377.831054688 730 468 648.69956243 468 557 c 2
 468 513 l 2
 468.005967163 458.366149421 456.950340352 429.247808383 397 326 c 1
387 557 m 2
 387 608.33605957 336.824071741 650 275 650 c 4
 213.175928259 650 163 608.33605957 163 557 c 2
 163 485 l 2
 163 429.005404039 214.698127427 381 275 381 c 0
 335.792722636 381 387 428.549614695 387 485 c 2
 387 557 l 2
EndSplineSet
EndChar

StartChar: hyphen
Encoding: 730 8209 474
AltUni2: 00002d.ffffffff.0 0000ad.ffffffff.0 002010.ffffffff.0
Width: 550
Flags: HW
HStem: 240 80
LayerCount: 2
Fore
SplineSet
478 357 m 29
 72 357 l 29
 72 267 l 29
 478 267 l 29
 478 357 l 29
EndSplineSet
EndChar

StartChar: endash
Encoding: 731 8211 475
Width: 550
Flags: HW
HStem: 230 110
LayerCount: 2
Fore
SplineSet
508 340 m 29
 42 340 l 29
 42 230 l 29
 508 230 l 29
 508 340 l 29
EndSplineSet
EndChar

StartChar: emdash
Encoding: 732 8212 476
Width: 550
Flags: HW
HStem: 230 110
LayerCount: 2
Fore
SplineSet
528 340 m 29
 22 340 l 29
 22 230 l 29
 528 230 l 29
 528 340 l 29
EndSplineSet
EndChar

StartChar: horizontalbar
Encoding: 733 8213 477
Width: 550
Flags: HW
HStem: 230 110
LayerCount: 2
Fore
SplineSet
550 340 m 25
 0 340 l 25
 0 230 l 25
 550 230 l 25
 550 340 l 25
EndSplineSet
EndChar

StartChar: parenleft
Encoding: 734 40 478
Width: 550
Flags: HW
HStem: -120 90<321.717 420.5> 640 90<321.717 420.5>
VStem: 129.5 90<126.022 483.978>
LayerCount: 2
Fore
SplineSet
384.5 -30 m 6
 420.5 -30 l 5
 420.5 -120 l 5
 374.5 -120 l 6
 224.215998641 -120 129.5 44.303262949 129.5 305 c 4
 129.5 565.696737051 224.215998641 730 374.5 730 c 6
 420.5 730 l 5
 420.5 640 l 5
 384.5 640 l 6
 285.02016462 640 219.5 506.974211226 219.5 305 c 4
 219.5 103.025788774 285.02016462 -30 384.5 -30 c 6
EndSplineSet
EndChar

StartChar: parenright
Encoding: 735 41 479
Width: 550
Flags: HW
HStem: -120 90<165.5 228.283> 640 90<165.5 228.283>
VStem: 330.5 90<126.022 483.978>
LayerCount: 2
Fore
SplineSet
165.5 -30 m 6
 129.5 -30 l 5
 129.5 -120 l 5
 175.5 -120 l 6
 325.784001359 -120 420.5 44.303262949 420.5 305 c 4
 420.5 565.696737051 325.784001359 730 175.5 730 c 6
 129.5 730 l 5
 129.5 640 l 5
 165.5 640 l 6
 264.97983538 640 330.5 506.974211226 330.5 305 c 4
 330.5 103.025788774 264.97983538 -30 165.5 -30 c 6
EndSplineSet
EndChar

StartChar: braceleft
Encoding: 736 123 480
Width: 550
Flags: HW
HStem: -120 90<323.71 450.5> 640 90<323.71 450.5>
LayerCount: 2
Fore
SplineSet
424.5 -30 m 6
 450.5 -30 l 5
 450.5 -120 l 5
 404.5 -120 l 6
 1.158203125 -120 263.918945312 75.2197265625 259.802734375 229 c 4
 259.53125 239.15234375 99.5 294.48828125 99.5 305 c 4
 99.5 315.51171875 259.53125 370.84765625 259.802734375 381 c 4
 263.918945312 534.780273438 1.158203125 730 404.5 730 c 6
 450.5 730 l 5
 450.5 640 l 5
 424.5 640 l 6
 271.266527838 640 277.870471251 675.864273915 375.51953125 374 c 4
 381.41796875 355.766601562 299.5 320.250976562 299.5 305 c 4
 299.5 289.749023438 381.41796875 254.233398438 375.51953125 236 c 4
 277.870471251 -65.8642739156 271.266527838 -30 424.5 -30 c 6
EndSplineSet
EndChar

StartChar: braceright
Encoding: 737 125 481
Width: 550
Flags: HW
HStem: -120 90<573.5 674.29> 640 90<573.5 674.29>
LayerCount: 2
Fore
SplineSet
125.5 -30 m 6
 99.5 -30 l 5
 99.5 -120 l 5
 145.5 -120 l 6
 548.841796875 -120 286.081054688 75.2197265625 290.197265625 229 c 4
 290.46875 239.15234375 450.5 294.48828125 450.5 305 c 4
 450.5 315.51171875 290.46875 370.84765625 290.197265625 381 c 4
 286.081054688 534.780273438 548.841796875 730 145.5 730 c 6
 99.5 730 l 5
 99.5 640 l 5
 125.5 640 l 6
 278.733472162 640 272.129528749 675.864273915 174.48046875 374 c 4
 168.58203125 355.766601562 250.5 320.250976562 250.5 305 c 4
 250.5 289.749023438 168.58203125 254.233398438 174.48046875 236 c 4
 272.129528749 -65.8642739156 278.733472162 -30 125.5 -30 c 6
EndSplineSet
EndChar

StartChar: numbersign
Encoding: 738 35 482
Width: 550
Flags: HW
HStem: 196 75<72 478> 459 75<72 478>
LayerCount: 2
Fore
SplineSet
478 534 m 1
 478 459 l 1
 72 459 l 1
 72 534 l 1
 478 534 l 1
478 271 m 1
 478 196 l 1
 72 196 l 1
 72 271 l 1
 478 271 l 1
478 534 m 1
 478 459 l 1
 72 459 l 1
 72 534 l 1
 478 534 l 1
417 680 m 1
 379 50 l 5
 303 50 l 5
 341 680 l 1
 417 680 l 1
417 680 m 1
 379 50 l 5
 303 50 l 5
 341 680 l 1
 417 680 l 1
237 680 m 1
 199 50 l 5
 123 50 l 5
 161 680 l 1
 237 680 l 1
237 680 m 1
 199 50 l 5
 123 50 l 5
 161 680 l 1
 237 680 l 1
EndSplineSet
EndChar

StartChar: percent
Encoding: 739 37 483
Width: 550
Flags: HW
HStem: 55 74<370.153 451.723> 225 76<370.153 451.847> 429 75<98.1533 179.847> 600 75<98.1533 179.847>
VStem: 16 75<511.153 592.847> 187 75<511.153 592.847> 288 75<136.653 216.886> 459 75<136.653 216.886>
LayerCount: 2
Fore
SplineSet
343 177 m 0
 343 145 369 119 401 119 c 0
 432.501479303 119 459 145.498520697 459 177 c 0
 459 209 433 235 401 235 c 0
 369 235 343 209 343 177 c 0
91 552 m 0
 91 520 117 494 149 494 c 0
 181 494 207 520 207 552 c 0
 207 582.513158907 179.513158907 610 149 610 c 0
 118.486841093 610 91 582.513158907 91 552 c 0
272 178 m 0
 272 255.181971036 326.139291251 311 401 311 c 0
 477 311 534 254 534 178 c 0
 534 102 477 45 401 45 c 0
 326.139291251 45 272 100.818028964 272 178 c 0
16 552 m 0
 16 628 73 685 149 685 c 0
 225 685 282 628 282 552 c 0
 282 476 225 419 149 419 c 0
 73 419 16 476 16 552 c 0
504 540 m 1
 154 200 l 1
 46 200 l 1
 396 540 l 1
 504 540 l 1
504 540 m 1
 154 200 l 1
 46 200 l 1
 396 540 l 1
 504 540 l 1
EndSplineSet
EndChar

StartChar: quotesingle
Encoding: 741 39 485
Width: 550
Flags: HW
HStem: 447 284
LayerCount: 2
Fore
SplineSet
353.5 731 m 21
 182.5 731 l 5
 176.5 447 l 5
 312.5 447 l 5
 353.5 731 l 21
EndSplineSet
EndChar

StartChar: quotedbl
Encoding: 742 34 486
Width: 550
Flags: HW
HStem: 447 284
VStem: 96.5 101<447 495.488> 311.5 101<447 495.488>
LayerCount: 2
Fore
SplineSet
453.5 731 m 21
 317.5 731 l 5
 311.5 447 l 5
 412.5 447 l 5
 453.5 731 l 21
238.5 731 m 21
 102.5 731 l 5
 96.5 447 l 5
 197.5 447 l 5
 238.5 731 l 21
EndSplineSet
EndChar

StartChar: quoteleft
Encoding: 743 8216 487
AltUni2: 0002bb.ffffffff.0
Width: 550
Flags: HW
HStem: 496 304
LayerCount: 2
Fore
SplineSet
443.5 800 m 21
 222.5 800 l 5
 106.5 496 l 5
 222.5 496 l 5
 443.5 800 l 21
EndSplineSet
EndChar

StartChar: quoteright
Encoding: 744 8217 488
Width: 550
Flags: HW
HStem: 496 304
LayerCount: 2
Fore
SplineSet
106.5 496 m 21
 327.5 496 l 5
 443.5 800 l 5
 327.5 800 l 5
 106.5 496 l 21
EndSplineSet
EndChar

StartChar: quotedblleft
Encoding: 745 8220 489
Width: 550
Flags: HW
HStem: 496 304
LayerCount: 2
Fore
SplineSet
513.5 800 m 21
 322.5 800 l 5
 256.5 496 l 5
 332.5 496 l 5
 513.5 800 l 21
293.5 800 m 21
 102.5 800 l 5
 36.5 496 l 5
 112.5 496 l 5
 293.5 800 l 21
EndSplineSet
EndChar

StartChar: quotedblright
Encoding: 746 8221 490
Width: 550
Flags: HW
HStem: 496 304
LayerCount: 2
Fore
SplineSet
36.5 496 m 21
 227.5 496 l 5
 293.5 800 l 5
 217.5 800 l 5
 36.5 496 l 21
256.5 496 m 21
 447.5 496 l 5
 513.5 800 l 5
 437.5 800 l 5
 256.5 496 l 21
EndSplineSet
EndChar

StartChar: quotereversed
Encoding: 747 8219 491
Width: 550
Flags: HW
HStem: 447 284<233.5 363.5>
VStem: 192.5 177
LayerCount: 2
Fore
SplineSet
192.5 731 m 21
 363.5 731 l 5
 369.5 447 l 5
 233.5 447 l 5
 192.5 731 l 21
EndSplineSet
EndChar

StartChar: quotesinglbase
Encoding: 748 8218 492
Width: 550
Flags: HW
HStem: 1 284
LayerCount: 2
Fore
SplineSet
363.5 285 m 21
 192.5 285 l 5
 186.5 1 l 5
 322.5 1 l 5
 363.5 285 l 21
EndSplineSet
EndChar

StartChar: quotedblbase
Encoding: 749 8222 493
Width: 550
Flags: HW
HStem: 0 284
VStem: 96.5 101<0 48.4878> 311.5 101<0 48.4878>
LayerCount: 2
Fore
SplineSet
453.5 284 m 17
 317.5 284 l 1
 311.5 0 l 1
 412.5 0 l 1
 453.5 284 l 17
238.5 284 m 17
 102.5 284 l 1
 96.5 0 l 1
 197.5 0 l 1
 238.5 284 l 17
EndSplineSet
EndChar

StartChar: guilsinglleft
Encoding: 750 8249 494
Width: 550
Flags: HW
LayerCount: 2
Fore
SplineSet
438 130 m 5
 242 362 l 5
 438 598 l 5
 438 730 l 5
 112 362 l 29
 438 0 l 5
 438 130 l 5
EndSplineSet
EndChar

StartChar: guilsinglright
Encoding: 751 8250 495
Width: 550
Flags: HW
LayerCount: 2
Fore
SplineSet
112 130 m 1
 308 362 l 1
 112 598 l 1
 112 730 l 1
 438 362 l 25
 112 0 l 1
 112 130 l 1
EndSplineSet
EndChar

StartChar: guillemotleft
Encoding: 752 171 496
Width: 550
Flags: HW
LayerCount: 2
Fore
SplineSet
222.200195312 366 m 29
 417.799804688 730 l 5
 477.799804688 692 l 5
 300.200195312 366 l 5
 477.799804688 36 l 5
 417.799804688 -2 l 5
 222.200195312 366 l 29
72.2001953125 366 m 29
 267.799804688 730 l 5
 327.799804688 692 l 5
 150.200195312 366 l 5
 327.799804688 36 l 5
 267.799804688 -2 l 5
 72.2001953125 366 l 29
EndSplineSet
EndChar

StartChar: guillemotright
Encoding: 753 187 497
Width: 550
Flags: HW
LayerCount: 2
Fore
SplineSet
327.799804688 366 m 29
 132.200195312 730 l 5
 72.2001953125 692 l 5
 249.799804688 366 l 5
 72.2001953125 36 l 5
 132.200195312 -2 l 5
 327.799804688 366 l 29
477.799804688 366 m 29
 282.200195312 730 l 5
 222.200195312 692 l 5
 399.799804688 366 l 5
 222.200195312 36 l 5
 282.200195312 -2 l 5
 477.799804688 366 l 29
EndSplineSet
EndChar

StartChar: asterisk
Encoding: 754 42 498
Width: 550
Flags: HW
VStem: 235 80<264 394.149 549.364 680>
LayerCount: 2
Fore
SplineSet
235 424.149414062 m 1
 128.884765625 341.930664062 l 1
 83.173828125 398.640625 l 1
 214.91796875 501.756835938 l 1
 83.173828125 604.874023438 l 1
 128.8828125 661.583984375 l 1
 235 579.364257812 l 1
 235 730 l 1
 315 730 l 1
 315 579.364257812 l 1
 421.1171875 661.583984375 l 1
 466.826171875 604.874023438 l 1
 335.08203125 501.756835938 l 1
 466.826171875 398.640625 l 1
 421.115234375 341.930664062 l 1
 315 424.149414062 l 1
 315 274 l 1
 235 274 l 1
 235 424.149414062 l 1
EndSplineSet
EndChar

StartChar: period
Encoding: 757 46 501
Width: 550
Flags: HW
HStem: 0 218<212.858 337.142>
VStem: 166 218<46.8582 171.142>
LayerCount: 2
Fore
SplineSet
166 109 m 4
 166 167 217 218 275 218 c 4
 333 218 384 167 384 109 c 4
 384 51 333 0 275 0 c 4
 217 0 166 51 166 109 c 4
EndSplineSet
EndChar

StartChar: comma
Encoding: 758 44 502
Width: 550
Flags: HW
HStem: -31 304
LayerCount: 2
Fore
SplineSet
443.5 273 m 21
 222.5 273 l 5
 106.5 -31 l 5
 222.5 -31 l 5
 443.5 273 l 21
EndSplineSet
EndChar

StartChar: colon
Encoding: 759 58 503
Width: 550
Flags: HW
HStem: 40 198<214.588 335.412> 440 198<214.588 335.412>
VStem: 176 198<78.5877 199.412 478.588 599.412>
LayerCount: 2
Fore
SplineSet
176 139 m 4
 176 192 222 238 275 238 c 4
 328 238 374 192 374 139 c 4
 374 86 328 40 275 40 c 4
 222 40 176 86 176 139 c 4
176 519 m 4
 176 572 222 618 275 618 c 4
 328 618 374 572 374 519 c 4
 374 466 328 420 275 420 c 4
 222 420 176 466 176 519 c 4
EndSplineSet
EndChar

StartChar: semicolon
Encoding: 760 59 504
Width: 550
Flags: HW
HStem: 440 198<214.588 335.412>
VStem: 176 198<291.451 312 478.588 599.412>
LayerCount: 2
Fore
SplineSet
371.5 302 m 17
 179.5 302 l 1
 154.5 -30 l 1
 257.5 -30 l 1
 371.5 302 l 17
176 519 m 0
 176 572 222 618 275 618 c 0
 328 618 374 572 374 519 c 0
 374 466 328 420 275 420 c 0
 222 420 176 466 176 519 c 0
EndSplineSet
EndChar

StartChar: ellipsis
Encoding: 761 8230 505
Width: 550
Flags: HW
HStem: 10 178<62.2273 157.773 230.118 319.882 392.227 487.773>
VStem: 51 118<19.967 178.033> 218 114<20.9567 177.043> 381 118<19.967 178.033>
CounterMasks: 1 70
LayerCount: 2
Fore
SplineSet
381 99 m 0
 381 166.291572443 395.390980066 188 440 188 c 0
 484.609019934 188 499 166.291572443 499 99 c 0
 499 31.7084275573 484.609019934 10 440 10 c 0
 395.390980066 10 381 31.7084275573 381 99 c 0
218 99 m 0
 218 163.502956217 233.689117928 188 275 188 c 0
 316.310882072 188 332 163.502956217 332 99 c 0
 332 34.4970437825 316.310882072 10 275 10 c 0
 233.689117928 10 218 34.4970437825 218 99 c 0
51 99 m 0
 51 166.291572443 65.3909800661 188 110 188 c 0
 154.609019934 188 169 166.291572443 169 99 c 0
 169 31.7084275573 154.609019934 10 110 10 c 0
 65.3909800661 10 51 31.7084275573 51 99 c 0
EndSplineSet
EndChar

StartChar: exclam
Encoding: 762 33 506
Width: 550
Flags: HW
HStem: 0 125<211.712 338.288> 710 20G<194.919 355>
VStem: 190 170<21.7491 103.798> 234.919 80.0811<189 283.675>
LayerCount: 2
Fore
SplineSet
190 63 m 4xe0
 190 96.5184126628 229.047337478 125 275 125 c 4
 320.952662522 125 360 96.5184126628 360 63 c 4
 360 29.1944237181 320.610698158 0 275 0 c 4
 229.389301842 0 190 29.1944237181 190 63 c 4xe0
234.918945312 189 m 21xd0
 194.918945312 730 l 13
 355 730 l 21
 315 189 l 13
 234.918945312 189 l 21xd0
EndSplineSet
EndChar

StartChar: exclamdown
Encoding: 763 161 507
Width: 550
Flags: HW
HStem: 605 125<211.712 338.288>
VStem: 190 170<626.202 708.251> 244.919 60.0811<465.26 541>
LayerCount: 2
Fore
SplineSet
190 667 m 0xc0
 190 633.481587337 229.047337478 605 275 605 c 0
 320.952662522 605 360 633.481587337 360 667 c 0
 360 700.805576282 320.610698158 730 275 730 c 0
 229.389301842 730 190 700.805576282 190 667 c 0xc0
244.918945312 541 m 17xa0
 194.918945312 0 l 9
 355 0 l 17
 305 541 l 13
 244.918945312 541 l 17xa0
EndSplineSet
EndChar

StartChar: exclamdbl
Encoding: 764 8252 508
Width: 550
Flags: HW
HStem: 0 105<99.002 224.998 325.002 450.998> 710 20G<81.9189 242 307.919 468>
VStem: 87 150<12.8128 92.6404> 121.919 80.0811<179 275.425> 313 150<12.8128 92.6404> 347.919 80.0811<179 275.425>
LayerCount: 2
Fore
SplineSet
313 53 m 0xc8
 313 85.6428700129 340.918937481 105 388 105 c 0
 435.081062519 105 463 85.6428700129 463 53 c 0
 463 20.0336908557 434.650437468 0 388 0 c 0
 341.349562532 0 313 20.0336908557 313 53 c 0xc8
347.918945312 179 m 17xc4
 307.918945312 730 l 9
 468 730 l 17
 428 179 l 9
 347.918945312 179 l 17xc4
87 53 m 0xe0
 87 85.6428700129 114.918937481 105 162 105 c 0
 209.081062519 105 237 85.6428700129 237 53 c 0
 237 20.0336908557 208.650437468 0 162 0 c 0
 115.349562532 0 87 20.0336908557 87 53 c 0xe0
121.918945312 179 m 17xd0
 81.9189453125 730 l 9
 242 730 l 17
 202 179 l 9
 121.918945312 179 l 17xd0
EndSplineSet
EndChar

StartChar: question
Encoding: 765 63 509
Width: 550
Flags: HW
LayerCount: 2
Fore
SplineSet
228.999023438 311 m 6xf6
 229.000129893 366.517493899 265.781843893 401 325 401 c 4
 362.292717325 401 377 424.192253449 377 483 c 6
 377 546 l 6
 377 601.804289471 335.553590702 640 275 640 c 4
 213.957663723 640 173 602.25470206 173 546 c 6
 173 491 l 13
 82 491 l 21
 82 558 l 6
 82 648.964410559 173.400606695 730 276 730 c 4
 377.487332426 730 468 648.915735298 468 558 c 6
 468 464 l 6
 468 370.76558496 410.187157262 311 319.999023438 311 c 5
 319.999023438 191 l 5
 228.999023438 191 l 5
 228.999023438 311 l 6xf6
190 63 m 4xfa
 190 96.5184126628 229.047337478 125 275 125 c 4
 320.952662522 125 360 96.5184126628 360 63 c 4
 360 29.1944237181 320.610698158 0 275 0 c 4
 229.389301842 0 190 29.1944237181 190 63 c 4xfa
EndSplineSet
EndChar

StartChar: questiondown
Encoding: 766 191 510
Width: 550
Flags: HW
LayerCount: 2
Fore
SplineSet
321.000976562 419 m 6xf6
 320.999870107 363.482506101 284.218156107 329 225 329 c 4
 187.707282675 329 173 305.807746551 173 247 c 6
 173 184 l 6
 173 128.195710529 214.446409298 90 275 90 c 4
 336.042336277 90 377 127.74529794 377 184 c 6
 377 239 l 13
 468 239 l 21
 468 172 l 6
 468 81.0355894413 376.599393305 0 274 0 c 4
 172.512667574 0 82 81.084264702 82 172 c 6
 82 266 l 6
 82 359.23441504 139.812842738 419 230.000976562 419 c 5
 230.000976562 539 l 5
 321.000976562 539 l 5
 321.000976562 419 l 6xf6
360 667 m 4xfa
 360 633.481587337 320.952662522 605 275 605 c 4
 229.047337478 605 190 633.481587337 190 667 c 4
 190 700.805576282 229.389301842 730 275 730 c 4
 320.610698158 730 360 700.805576282 360 667 c 4xfa
EndSplineSet
EndChar

StartChar: slash
Encoding: 767 47 511
Width: 550
Flags: HW
LayerCount: 2
Fore
SplineSet
364 750 m 5
 82 -20 l 5
 186 -20 l 5
 468 750 l 5
 364 750 l 5
EndSplineSet
EndChar

StartChar: fraction
Encoding: 768 8725 512
AltUni2: 002044.ffffffff.0
Width: 550
Flags: HW
LayerCount: 2
Fore
SplineSet
389 730 m 5
 82 0 l 1
 161 0 l 1
 468 730 l 1
 389 730 l 5
EndSplineSet
EndChar

StartChar: bar
Encoding: 769 124 513
Width: 550
Flags: HW
HStem: 0 21G<221.919 328> 710 20G<221.919 328>
VStem: 221.919 106.081<0 304 427 730>
LayerCount: 2
Fore
SplineSet
328 304 m 17
 328 0 l 1
 221.918945312 0 l 1
 221.918945312 304 l 9
 328 304 l 17
221.918945312 427 m 21
 221.918945312 730 l 13
 328 730 l 21
 328 427 l 13
 221.918945312 427 l 21
EndSplineSet
EndChar

StartChar: brokenbar
Encoding: 770 166 514
Width: 550
Flags: HW
VStem: 224.919 100.081<40 232 499 690>
LayerCount: 2
Fore
SplineSet
325 342 m 17
 325 40 l 1
 224.918945312 40 l 1
 224.918945312 232 l 13
 325 342 l 17
224.918945312 389 m 17
 224.918945312 690 l 9
 325 690 l 17
 325 499 l 9
 224.918945312 389 l 17
EndSplineSet
EndChar

StartChar: at
Encoding: 771 64 515
Width: 550
Flags: HW
HStem: 0 90<192.643 368.714> 200 90<284.31 408.196> 419 90<290.444 400.567> 640 90<197.221 338.372>
VStem: 42 80<180.555 539.165> 192 81<305.401 343 355 400.377> 417 81<302.845 343 355 405.471>
LayerCount: 2
Fore
SplineSet
273 343 m 2
 273 355 l 2
 273 392.746037329 302.535708005 419 345 419 c 0
 393.69981637 419 417 398.288725662 417 355 c 2
 417 343 l 2
 417 304.18497968 397.729838925 290 345 290 c 0
 300.268019565 290 273 310.07229218 273 343 c 2
498 343 m 2
 498 367 l 1
 496.371193594 597.47610651 414.593364002 730 274 730 c 0
 121.8389783 730 42 601.982327899 42 358 c 0
 42 118.443315368 118.756561914 0 274 0 c 0
 369.00726681 0 435.503622234 35.0677297262 475 106 c 1
 402 146 l 1
 364.332017431 99.2003852927 343.302565333 90 274 90 c 0
 163.057488925 90 122 162.390835735 122 358 c 0
 122 558.615416861 165.866867508 640 274 640 c 0
 336.257011346 640 386.755652498 586.717969179 401 506 c 1
 384.003612453 507.757359313 365.364002146 509 356 509 c 0
 262.610652482 509 192 447.861508217 192 367 c 2
 192 343 l 2
 192 261.391094182 262.406569552 200 356 200 c 0
 452.273274098 200 498 246.048745098 498 343 c 2
EndSplineSet
EndChar

StartChar: ampersand
Encoding: 772 38 516
Width: 550
Flags: HW
HStem: 2 78<203.865 320.892> 652 78<216.439 321.561>
VStem: 82 81<123.227 257.175> 118 78<499.254 633.243> 342 78<498.949 632.198> 393 75<177.047 264>
LayerCount: 2
Fore
SplineSet
468 264 m 17xe4
 468 214.26557673 458.717016256 175.102989062 436 129 c 0
 389.958035319 35.5618952057 342.38999487 2 256 2 c 0
 162.595331082 2 82 87.2272466613 82 186 c 0
 82 269.999835428 105.131708887 311.292803359 203 402 c 4
 250.599609375 446.1171875 337.391601562 463 342 570 c 1xe8
 342 622.337592939 315.593222982 652 269 652 c 0
 222.406777018 652 196 622.337592939 196 570 c 0
 196 542.071263136 187.480033666 564.005644549 243 449 c 1
 468 0 l 1xd4
 378 0 l 1
 162 439 l 1
 134.054881647 491.665799973 118 542.38463063 118 578 c 0
 118 669.301537943 178.29913007 730 269 730 c 0
 359.092555344 730 420 669.899276465 420 581 c 0xd8
 420 462.406125172 484.707222803 554.99822852 239 322 c 4
 183.507879496 269.378770574 163 232.950300417 163 187 c 0
 163 130.93435477 208.698112691 80 259 80 c 0
 306.907608484 80 338.924556375 105.434024026 366 165 c 0
 388.128810388 213.683382854 393 231.544411431 393 264 c 9
 468 264 l 17xe4
EndSplineSet
EndChar

StartChar: paragraph
Encoding: 774 182 518
Width: 550
Flags: HW
LayerCount: 2
Fore
SplineSet
278 730 m 2
 320 730 l 5
 320 338 l 5
 278 338 l 2
 169.807617188 338 82 425.807617188 82 534 c 0
 82 642.192382812 169.807617188 730 278 730 c 2
468 730 m 1
 468 0 l 1
 418 0 l 1
 418 650 l 1
 348 650 l 5
 348 0 l 5
 298 0 l 5
 298 730 l 5
 468 730 l 1
EndSplineSet
EndChar

StartChar: periodcentered
Encoding: 777 8729 521
AltUni2: 0000b7.ffffffff.0
Width: 550
VWidth: 1080
Flags: HW
HStem: 230 218<212.858 337.142>
VStem: 166 218<276.858 401.142>
LayerCount: 2
Fore
SplineSet
166 339 m 4
 166 397 217 448 275 448 c 4
 333 448 384 397 384 339 c 4
 384 281 333 230 275 230 c 4
 217 230 166 281 166 339 c 4
EndSplineSet
EndChar

StartChar: bullet
Encoding: 778 8226 522
Width: 550
VWidth: 1080
Flags: HW
HStem: 240 198<198.273 351.727>
VStem: 166 218<272.861 405.139>
LayerCount: 2
Fore
SplineSet
166 339 m 0
 166 403.576483098 203.900639821 438 275 438 c 0
 346.099360179 438 384 403.576483098 384 339 c 0
 384 274.423516902 346.099360179 240 275 240 c 0
 203.900639821 240 166 274.423516902 166 339 c 0
EndSplineSet
EndChar

StartChar: anoteleia
Encoding: 779 903 523
Width: 550
VWidth: 1080
Flags: HW
HStem: 275 128<226.747 321.253>
VStem: 210 128<291.747 386.253>
LayerCount: 2
Fore
SplineSet
210 339 m 0
 210 374 239 403 274 403 c 0
 309 403 338 374 338 339 c 0
 338 304 309 275 274 275 c 0
 239 275 210 304 210 339 c 0
EndSplineSet
EndChar

StartChar: plus
Encoding: 784 43 528
Width: 550
VWidth: 970
Flags: HW
HStem: -30 21G<225 325> 200 100<72 225 325 478> 476 20G<225 325>
VStem: 225 100<-30 200 300 496>
LayerCount: 2
Fore
SplineSet
225 280 m 5
 72 280 l 5
 72 380 l 5
 225 380 l 5
 225 576 l 5
 325 576 l 5
 325 380 l 5
 478 380 l 5
 478 280 l 5
 325 280 l 5
 325 50 l 5
 225 50 l 5
 225 280 l 5
EndSplineSet
EndChar

StartChar: minus
Encoding: 785 8722 529
Width: 550
VWidth: 970
Flags: HW
HStem: 280 100
LayerCount: 2
Fore
SplineSet
478 380 m 29
 72 380 l 29
 72 280 l 29
 478 280 l 29
 478 380 l 29
EndSplineSet
EndChar

StartChar: plusminus
Encoding: 786 177 530
Width: 550
VWidth: 1050
Flags: HW
HStem: 290 100<72 225 325 478> 556 20G<225 325>
VStem: 225 100<190 290 390 576>
LayerCount: 2
Fore
SplineSet
478 140 m 29
 72 140 l 29
 72 50 l 29
 478 50 l 29
 478 140 l 29
225 290 m 1
 72 290 l 1
 72 390 l 1
 225 390 l 1
 225 576 l 1
 325 576 l 1
 325 390 l 1
 478 390 l 1
 478 290 l 1
 325 290 l 1
 325 190 l 1
 225 190 l 1
 225 290 l 1
EndSplineSet
EndChar

StartChar: divide
Encoding: 787 247 531
Width: 550
VWidth: 1050
Flags: HW
HStem: 113 105<212.002 337.998> 442 105<212.002 337.998>
VStem: 200 150<125.813 205.64 454.813 534.64>
LayerCount: 2
Fore
SplineSet
200 166 m 4
 200 198.642870013 227.918937481 218 275 218 c 4
 322.081062519 218 350 198.642870013 350 166 c 4
 350 133.033690856 321.650437468 113 275 113 c 4
 228.349562532 113 200 133.033690856 200 166 c 4
200 495 m 4
 200 527.642870013 227.918937481 547 275 547 c 4
 322.081062519 547 350 527.642870013 350 495 c 4
 350 462.033690856 321.650437468 442 275 442 c 4
 228.349562532 442 200 462.033690856 200 495 c 4
478 380 m 29
 72 380 l 29
 72 280 l 29
 478 280 l 29
 478 380 l 29
EndSplineSet
EndChar

StartChar: multiply
Encoding: 788 215 532
Width: 550
VWidth: 1050
Flags: HW
LayerCount: 2
Fore
SplineSet
275 260.724609375 m 1
 400.188476562 135.188476562 l 1
 471 206 l 1
 346 331 l 1
 469.25 455.485351562 l 1
 398.438476562 526.296875 l 1
 275 403 l 1
 151.561523438 526.296875 l 1
 80.75 455.485351562 l 1
 204.353515625 331.5390625 l 1
 79 206 l 1
 149.811523438 135.188476562 l 1
 275 260.724609375 l 1
EndSplineSet
EndChar

StartChar: equal
Encoding: 789 61 533
Width: 550
VWidth: 1050
Flags: HW
LayerCount: 2
Fore
SplineSet
478 270 m 29
 72 270 l 29
 72 170 l 29
 478 170 l 29
 478 270 l 29
478 490 m 29
 72 490 l 29
 72 390 l 29
 478 390 l 29
 478 490 l 29
EndSplineSet
EndChar

StartChar: less
Encoding: 790 60 534
Width: 550
VWidth: 1050
Flags: HW
LayerCount: 2
Fore
SplineSet
438 180 m 1
 262 320 l 1
 438 464 l 5
 438 586 l 5
 112 320 l 25
 438 60 l 1
 438 180 l 1
EndSplineSet
EndChar

StartChar: greater
Encoding: 791 62 535
Width: 550
VWidth: 1050
Flags: HW
LayerCount: 2
Fore
SplineSet
112 60 m 5
 438 320 l 5
 112 586 l 5
 112 464 l 5
 288 320 l 5
 112 180 l 5
 112 60 l 5
EndSplineSet
EndChar

StartChar: lessequal
Encoding: 792 8804 536
Width: 550
VWidth: 1050
Flags: HW
HStem: 556 20G<412.531 438>
LayerCount: 2
Fore
SplineSet
478 140 m 29
 72 140 l 29
 72 50 l 29
 478 50 l 29
 478 140 l 29
281.51953125 190 m 21
 112 320 l 13
 438 576 l 5
 438 454 l 5
 262 320 l 5
 438 190 l 13
 281.51953125 190 l 21
281.51953125 190 m 1029
EndSplineSet
LCarets2: 1 0
EndChar

StartChar: greaterequal
Encoding: 793 8805 537
Width: 550
VWidth: 1050
Flags: HW
HStem: 50 90<72 478>
LayerCount: 2
Fore
SplineSet
72 140 m 29
 478 140 l 29
 478 50 l 29
 72 50 l 29
 72 140 l 29
268.48046875 190 m 21
 438 320 l 13
 112 576 l 5
 112 454 l 5
 288 320 l 5
 112 190 l 13
 268.48046875 190 l 21
268.48046875 190 m 1029
EndSplineSet
LCarets2: 1 0
EndChar

StartChar: approxequal
Encoding: 794 8776 538
Width: 550
VWidth: 1050
Flags: HW
LayerCount: 2
Back
SplineSet
475 230 m 5
 322 230 l 5
 322 330 l 5
 475 330 l 5
 475 526 l 5
 575 526 l 5
 575 330 l 5
 728 330 l 5
 728 230 l 5
 575 230 l 5
 575 0 l 5
 475 0 l 5
 475 230 l 5
EndSplineSet
Fore
SplineSet
313 253 m 0
 313 285.761282508 267.224395313 304 185 304 c 0
 92.8297050994 304 59 270.97576407 59 181 c 2
 59 150 l 1
 133 150 l 1
 133.713867188 172 l 2
 135.527912554 215.724416188 150.645396725 234 185 234 c 0
 213.802300281 234 237 216.155615601 237 194 c 0
 237 158.226290121 294.553309777 129 365 129 c 0
 457.170294901 129 491 162.02423593 491 252 c 2
 491 283 l 1
 417 283 l 1
 416.286132812 261 l 2
 414.226449993 225.768007168 397.688637635 209 365 209 c 0
 334.440103919 209 313 227.141626393 313 253 c 0
313 443 m 0
 313 478.248198866 258.963433686 504 185 504 c 0
 96.6735417495 504 59 464.233483709 59 371 c 2
 59 340 l 1
 133 340 l 1
 133.713867188 362 l 2
 135.527912554 405.724416188 150.645396725 424 185 424 c 0
 213.802300281 424 237 406.155615601 237 384 c 0
 237 350.792130131 287.716230122 329 365 329 c 0
 461.816387379 329 491 355.17260497 491 442 c 2
 491 473 l 1
 417 473 l 1
 416.286132812 451 l 2
 414.226449993 415.768007168 397.688637635 399 365 399 c 0
 334.440103919 399 313 417.141626393 313 443 c 0
EndSplineSet
EndChar

StartChar: notequal
Encoding: 795 8800 539
Width: 550
VWidth: 1050
Flags: HW
LayerCount: 2
Fore
SplineSet
326 577 m 1
 126 87 l 5
 224 87 l 5
 424 577 l 1
 326 577 l 1
478 270 m 25
 72 270 l 25
 72 170 l 25
 478 170 l 25
 478 270 l 25
478 490 m 25
 72 490 l 25
 72 390 l 25
 478 390 l 25
 478 490 l 25
EndSplineSet
LCarets2: 1 0
EndChar

StartChar: arrowleft
Encoding: 798 8592 542
Width: 550
VWidth: 1080
Flags: HW
LayerCount: 2
Fore
SplineSet
262 270 m 5
 514 270 l 5
 514 414 l 5
 262 414 l 5
 262 576 l 5
 36 340 l 29
 262 110 l 5
 262 270 l 5
EndSplineSet
EndChar

StartChar: arrowup
Encoding: 799 8593 543
Width: 550
VWidth: 1080
Flags: HW
LayerCount: 2
Fore
SplineSet
348 306 m 5
 348 558 l 5
 204 558 l 5
 204 306 l 5
 42 306 l 5
 278 80 l 29
 508 306 l 5
 348 306 l 5
EndSplineSet
EndChar

StartChar: arrowright
Encoding: 800 8594 544
Width: 550
VWidth: 1080
Flags: HW
HStem: 270 144<-14 238>
LayerCount: 2
Fore
SplineSet
288 270 m 5
 36 270 l 5
 36 414 l 5
 288 414 l 5
 288 576 l 5
 514 340 l 29
 288 110 l 5
 288 270 l 5
EndSplineSet
EndChar

StartChar: arrowdown
Encoding: 801 8595 545
Width: 550
VWidth: 1080
Flags: HW
LayerCount: 2
Fore
SplineSet
202 332 m 5
 202 80 l 5
 346 80 l 5
 346 332 l 5
 508 332 l 5
 272 558 l 29
 42 332 l 5
 202 332 l 5
EndSplineSet
EndChar

StartChar: arrowboth
Encoding: 802 8596 546
Width: 550
VWidth: 1080
Flags: HW
HStem: 270 144<223 327>
LayerCount: 2
Fore
SplineSet
213 270 m 1
 213 108 l 1
 27 344 l 25
 213 574 l 1
 213 414 l 1
 337 414 l 1
 337 576 l 1
 523 340 l 25
 337 110 l 1
 337 270 l 1
 213 270 l 1
EndSplineSet
EndChar

StartChar: dollar
Encoding: 815 36 559
Width: 550
Flags: HW
HStem: 0 21G<236 314> 47 75<204.587 354.561> 602 75<200.109 344.564> 710 20G<236 314>
VStem: 82 72<436.501 556.477> 82 64<181.394 243> 236 78<0 730> 396 72<163.238 284.091> 413 63<505.444 533.84>
LayerCount: 2
Fore
SplineSet
387 509.217773438 m 21
 387 515 l 6
 387 570.997070312 335.3046875 619 275 619 c 4
 214.20703125 619 163 571.450195312 163 515 c 6
 163 503 l 6
 163 451.387695312 213.504882812 409 275.000976562 409 c 5
 376.807617188 409 468 327.729492188 468 237 c 6
 468 213 l 6
 468 121.348632812 377.716796875 40 276 40 c 4
 173.168945312 40 82 121.299804688 82 213 c 6
 82 222 l 13
 163 222 l 21
 163 213 l 6
 163 161.83203125 213.377929688 120 275 120 c 4
 336.82421875 120 387 161.6640625 387 213 c 6
 387 225 l 6
 387 280.994140625 335.301757812 329 275 329 c 5
 172.78515625 329 82 410.84765625 82 503 c 6
 82 527 l 6
 82 617.96484375 173.400390625 699 276 699 c 4
 377.487304688 699 468 617.916015625 468 527 c 6
 468 509.921875 l 13
 387 509.217773438 l 21
236 730 m 1
 314 730 l 1
 314 0 l 1
 236 0 l 1
 236 730 l 1
EndSplineSet
EndChar

StartChar: asciitilde
Encoding: 825 126 569
Width: 550
VWidth: 1050
Flags: HW
HStem: 219 80<319.953 409.51> 364 80<140.727 230.335>
VStem: 59 74<291 356.494> 237 76<308.274 356.354> 416.286 74.7139<302.743 372>
LayerCount: 2
Fore
SplineSet
313 343 m 0
 313 406.437852391 265.396486199 444 185 444 c 0
 94.3622717474 444 59 401.060098592 59 291 c 2
 59 230 l 1
 133 230 l 1
 133.713867188 292 l 2
 135.012547355 353.595108591 142.424028504 364 185 364 c 0
 213.802300281 364 237 346.155615601 237 324 c 0
 237 259.348987355 286.187336966 219 365 219 c 0
 455.637728253 219 491 261.939901408 491 372 c 2
 491 433 l 1
 417 433 l 1
 416.286132812 371 l 2
 414.99838772 308.922277582 407.930675972 299 365 299 c 0
 334.440103919 299 313 317.141626393 313 343 c 0
EndSplineSet
EndChar

StartChar: ibreve.salt_serifs
Encoding: 1122 57387 866
Width: 550
VWidth: 1080
Flags: HW
HStem: 280 124<-44 298>
LayerCount: 2
Fore
SplineSet
323 280 m 1
 31 280 l 5
 31 404 l 5
 323 404 l 1
 323 566 l 1
 519 340 l 25
 323 120 l 1
 323 280 l 1
EndSplineSet
EndChar

StartChar: iogonek.salt_serifs
Encoding: 1123 57388 867
Width: 550
VWidth: 1080
Flags: HW
HStem: 80 21G<249.551 295.061>
VStem: 212 124<276 618>
LayerCount: 2
Fore
SplineSet
212 276 m 1
 212 568 l 5
 336 568 l 5
 336 276 l 1
 498 276 l 1
 272 80 l 25
 52 276 l 1
 212 276 l 1
EndSplineSet
EndChar

StartChar: ij.salt_serifs
Encoding: 1125 57389 869
Width: 550
VWidth: 1080
Flags: HW
LayerCount: 2
Fore
SplineSet
227 280 m 1
 519 280 l 5
 519 404 l 5
 227 404 l 1
 227 566 l 1
 31 340 l 25
 227 120 l 1
 227 280 l 1
EndSplineSet
EndChar

StartChar: icyrillic.salt_serifs
Encoding: 1126 57390 870
Width: 550
VWidth: 1080
Flags: HW
HStem: 80 21G<214 338>
VStem: 214 124<80 422>
LayerCount: 2
Fore
SplineSet
338 372 m 1
 338 80 l 1
 214 80 l 1
 214 372 l 1
 52 372 l 1
 278 568 l 25
 498 372 l 1
 338 372 l 1
EndSplineSet
EndChar

StartChar: NameMe.1178
Encoding: 1178 -1 922
Width: 550
Flags: HW
LayerCount: 2
Back
SplineSet
160 650 m 1
 302 650 l 2
 356.484375 650 390 610.6640625 390 520 c 0
 390 429.89453125 368.2890625 393 252 393 c 2
 160 393 l 1
 160 650 l 1
234.458984375 317.938476562 m 17
 442.895507812 320.766601562 468 386.390625 468 522 c 0
 468 671.37109375 413.65234375 730 296 730 c 2
 82 730 l 1
 82 0 l 1
 160 0 l 1
 160 275 l 1
 362 0 l 9
 468 0 l 25
 234.458984375 317.938476562 l 17
EndSplineSet
Fore
SplineSet
160 650 m 1
 212 650 l 2
 346.484701747 650 390 620.663843875 390 530 c 0
 390 439.894982679 338.288921914 403 212 403 c 2
 160 403 l 1
 160 650 l 1
234.458984375 327.938476562 m 17
 392.895288756 330.766117855 468 396.390486889 468 532 c 0
 468 681.370615224 403.652026205 730 206 730 c 2
 82 730 l 1
 82 0 l 1
 160 0 l 1
 160 285 l 1
 362 0 l 9
 468 0 l 25
 234.458984375 327.938476562 l 17
EndSplineSet
EndChar

StartChar: NameMe.1179
Encoding: 1179 -1 923
Width: 550
Flags: HW
LayerCount: 2
Back
SplineSet
235 526 m 29
 235 559 l 22
 235 649 326 730 429 730 c 14
 468 730 l 29
 468 645 l 29
 428 645 l 22
 367 645 315 595 315 541 c 14
 315 526 l 29
 468 526 l 29
 468 446 l 29
 315 446 l 29
 315 0 l 29
 235 0 l 29
 235 446 l 29
 82 446 l 29
 82 526 l 29
 235 526 l 29
EndSplineSet
Fore
SplineSet
468 449 m 17
 430.509667992 494.105555697 360.093362388 526 298 526 c 0
 247.622366364 526 191.289321881 511.088311755 162 490 c 1
 162 526 l 1
 82 526 l 17
 82 -0.212890625 l 1
 162 0 l 1
 162 342 l 2
 161.846447301 401.710619036 217.634032939 446 293 446 c 0
 332.833477759 446 382.953318806 422.389826945 414 389 c 9
 468 449 l 17
82 -0.212890625 m 1025
  Spiro
    82 -0.212891 {
    0 0 z
  EndSpiro
EndSplineSet
EndChar

StartChar: NameMe.1180
Encoding: 1180 -1 924
Width: 550
Flags: HW
LayerCount: 2
Fore
SplineSet
468 216 m 1xf0
 468 71.30078125 404.291412871 0 275 0 c 0
 154.445062281 0 82 73.5711513321 82 196 c 1
 162 216 l 0
 162 132.0045152 204.827247812 80 274 80 c 0
 344.282348952 80 388 132.154296875 388 216 c 1xf0
 387 396 82 240 82 524 c 0
 82 663.90234375 149.994502456 730 275 730 c 0
 376.670734732 730 458.586922554 661.125195314 476 561 c 1
 398 533 l 1xe8
 383.22236345 603.721546347 334.966198103 650 276 650 c 0
 209.835962252 650 162 602.932617188 162 524 c 0
 162 336 468 504 468 216 c 1xf0
EndSplineSet
EndChar

StartChar: NameMe.1181
Encoding: 1181 -1 925
Width: 550
Flags: HW
LayerCount: 2
Back
SplineSet
160 650 m 1
 160 390 l 1
 202 390 l 2
 322.099748738 390 390 440.202845348 390 529 c 0
 390 611.383665444 330.00106697 650 202 650 c 2
 160 650 l 1
160 310 m 1
 160 0 l 1
 82 0 l 1
 82 730 l 1
 180 730 l 2
 390.260675164 730 468 675.744429542 468 529 c 0
 468 369.199165969 387.613705327 312.041378523 160 310 c 1
EndSplineSet
Fore
SplineSet
160 326 m 1xe8
 202 326 l 2
 338.248756938 326 390 296.545835066 390 219 c 0
 390 105.493158726 355.520044313 80 202 80 c 2
 160 80 l 1
 160 326 l 1xe8
394.235351562 374.795898438 m 1
 427.624600501 416.531093343 440 458.230034039 440 529 c 0xf0
 440 676.507040045 377.724613784 730 206 730 c 2
 82 730 l 1
 82 0 l 1
 240 0 l 1
 415.277928772 2.08664200919 468 52.727578847 468 219 c 0
 468 280.87450015 446.454797986 326.379415795 394.235351562 374.795898438 c 1
160 650 m 1
 202 650 l 2
 325.503365157 650 359 624.184122191 359 529 c 0
 359 440.456240409 313.210962047 404 202 404 c 2
 160 404 l 1
 160 650 l 1
EndSplineSet
EndChar

StartChar: liga_exclam_equal
Encoding: 1182 -1 926
Width: 1100
VWidth: 1050
Flags: HW
LayerCount: 2
Fore
SplineSet
694 680 m 5
 302 -20 l 5
 406 -20 l 5
 798 680 l 5
 694 680 l 5
1028 270 m 25
 72 270 l 25
 72 170 l 25
 1028 170 l 25
 1028 270 l 25
1028 490 m 25
 72 490 l 25
 72 390 l 25
 1028 390 l 25
 1028 490 l 25
EndSplineSet
Ligature2: "liga standard lookup-1" exclam equal
LCarets2: 1 0
EndChar

StartChar: liga_asciitilde_equal
Encoding: 1183 -1 927
Width: 1100
VWidth: 1050
Flags: HW
LayerCount: 2
Fore
SplineSet
1028 270 m 25
 72 270 l 25
 72 170 l 25
 1028 170 l 25
 1028 270 l 25
601 493 m 0
 601 567.794817164 520.761486689 604 355 604 c 0
 166.228419437 604 93 558.44186119 93 441 c 2
 93 370 l 1
 201 370 l 1
 202.427734375 442 l 1
 204.795606976 498.15292109 238.376506043 514 355 514 c 0
 429.822819297 514 489 496.335169939 489 474 c 0
 489 397.660220664 571.699254639 359 735 359 c 0
 923.771580563 359 997 404.55813881 997 522 c 2
 997 593 l 1
 889 593 l 1
 887.572265625 521 l 1
 885.220887867 464.3241188 852.748172256 449 735 449 c 0
 655.662050551 449 601 466.948733017 601 493 c 0
EndSplineSet
LCarets2: 1 0
Ligature2: "liga standard lookup-1" asciitilde equal
EndChar

StartChar: liga_hyphen_greater
Encoding: 1184 -1 928
Width: 1100
VWidth: 1020
Flags: HW
LayerCount: 2
Fore
SplineSet
702 52 m 1
 1028 312 l 1
 702 578 l 1
 702 456 l 1
 878 312 l 1
 702 172 l 1
 702 52 l 1
888 357 m 25
 72 357 l 25
 72 267 l 25
 888 267 l 25
 888 357 l 25
EndSplineSet
Ligature2: "liga standard lookup-1" hyphen greater
LCarets2: 1 0
EndChar

StartChar: liga_less_hyphen_greater
Encoding: 1185 -1 929
Width: 1650
VWidth: 1020
Flags: HW
LayerCount: 2
Fore
SplineSet
395 52 m 1
 69 312 l 1
 395 578 l 1
 395 456 l 1
 219 312 l 1
 395 172 l 1
 395 52 l 1
1443 267 m 17
 209 267 l 9
 209 357 l 17
 1443 357 l 9
 1443 267 l 17
1257 52 m 1
 1257 172 l 1
 1433 312 l 1
 1257 456 l 1
 1257 578 l 1
 1583 312 l 1
 1257 52 l 1
EndSplineSet
Ligature2: "liga standard lookup-1" less hyphen greater
LCarets2: 2 0 0
EndChar

StartChar: liga_less_hyphen
Encoding: 1186 -1 930
Width: 1100
VWidth: 1020
Flags: HW
LayerCount: 2
Fore
SplineSet
398 52 m 5
 72 312 l 5
 398 578 l 5
 398 456 l 5
 222 312 l 5
 398 172 l 5
 398 52 l 5
212 357 m 29
 1028 357 l 29
 1028 267 l 29
 212 267 l 29
 212 357 l 29
EndSplineSet
Ligature2: "liga standard lookup-1" less hyphen
LCarets2: 1 0
EndChar

StartChar: liga_less_exclam_hyphen
Encoding: 1187 -1 931
Width: 1650
VWidth: 1020
Flags: HW
HStem: 275 90<63 711 803 1439>
LayerCount: 2
Fore
SplineSet
560 75 m 0xe0
 560 108.518554688 599.046875 137 645 137 c 0
 690.953125 137 730 108.518554688 730 75 c 0
 730 41.1943359375 690.610351562 12 645 12 c 0
 599.389648438 12 560 41.1943359375 560 75 c 0xe0
604.918945312 201 m 17xd0
 564.918945312 682 l 9
 725 682 l 17
 685 201 l 9
 604.918945312 201 l 17xd0
393 52 m 1
 67 312 l 1
 393 578 l 1
 393 456 l 1
 217 312 l 1
 393 172 l 1
 393 52 l 1
1157 357 m 17
 1583 357 l 9
 1583 267 l 17
 1157 267 l 9
 1157 357 l 17
507 267 m 1
 207 267 l 1
 207 357 l 1
 507 357 l 1
 507 267 l 1
783 357 m 17
 1025 357 l 9
 1025 267 l 1
 783 267 l 9
 783 357 l 17
EndSplineSet
Ligature2: "liga standard lookup-1" less exclam hyphen
LCarets2: 2 0 0
EndChar

StartChar: liga_slash_slash
Encoding: 1188 -1 932
Width: 1100
Flags: HW
LayerCount: 2
Fore
SplineSet
824 750 m 5
 512 -20 l 5
 626 -20 l 5
 938 750 l 5
 824 750 l 5
464 750 m 5
 162 -20 l 5
 276 -20 l 5
 578 750 l 5
 464 750 l 5
EndSplineSet
LCarets2: 1 0
Ligature2: "liga standard lookup-1" slash slash
EndChar

StartChar: liga_equal_equal
Encoding: 1189 -1 933
Width: 1100
VWidth: 1050
Flags: HW
LayerCount: 2
Fore
SplineSet
1028 270 m 29
 72 270 l 29
 72 170 l 29
 1028 170 l 29
 1028 270 l 29
1028 490 m 29
 72 490 l 29
 72 390 l 29
 1028 390 l 29
 1028 490 l 29
EndSplineSet
LCarets2: 1 0
Ligature2: "liga standard lookup-1" equal equal
EndChar

StartChar: liga_equal_equal_equal
Encoding: 1190 -1 934
Width: 1650
VWidth: 1050
Flags: HW
LayerCount: 2
Fore
SplineSet
1578 390 m 29
 72 390 l 29
 72 300 l 29
 1578 300 l 29
 1578 390 l 29
1578 195 m 29
 72 195 l 29
 72 105 l 29
 1578 105 l 29
 1578 195 l 29
1578 585 m 29
 72 585 l 29
 72 495 l 29
 1578 495 l 29
 1578 585 l 29
EndSplineSet
Ligature2: "liga standard lookup-1" equal equal equal
EndChar

StartChar: liga_exclam_equal_equal
Encoding: 1191 -1 935
Width: 1650
VWidth: 1050
Flags: HW
LayerCount: 2
Fore
SplineSet
1578 390 m 25
 72 390 l 25
 72 300 l 25
 1578 300 l 25
 1578 390 l 25
1578 205 m 25
 72 205 l 25
 72 115 l 25
 1578 115 l 25
 1578 205 l 25
1578 575 m 25
 72 575 l 25
 72 485 l 25
 1578 485 l 25
 1578 575 l 25
969 700 m 1
 577 -40 l 1
 681 -40 l 1
 1073 700 l 1
 969 700 l 1
EndSplineSet
LCarets2: 2 0 0
Ligature2: "liga standard lookup-1" exclam equal equal
EndChar

StartChar: liga_less_equal
Encoding: 1192 -1 936
Width: 1100
VWidth: 1050
Flags: HW
LayerCount: 2
Fore
SplineSet
835.629882812 117.400390625 m 25
 264.370117188 117.400390625 l 25
 264.370117188 18.5 l 25
 835.629882812 18.5 l 25
 835.629882812 117.400390625 l 25
557.888671875 217.900390625 m 21
 352.770507812 375.200195312 l 13
 747.229492188 684.959960938 l 5
 747.229492188 547.340820312 l 5
 524.270507812 375.200195312 l 5
 737.229492188 217.900390625 l 13
 557.888671875 217.900390625 l 21
557.888671875 217.900390625 m 1029
EndSplineSet
LCarets2: 1 0
Ligature2: "liga standard lookup-1" less equal
EndChar

StartChar: liga_greater_equal
Encoding: 1193 -1 937
Width: 1100
VWidth: 1050
Flags: HW
LayerCount: 2
Fore
SplineSet
264.370117188 117.400390625 m 25
 835.629882812 117.400390625 l 25
 835.629882812 18.5 l 25
 264.370117188 18.5 l 25
 264.370117188 117.400390625 l 25
542.111328125 217.900390625 m 17
 747.229492188 375.200195312 l 9
 352.770507812 684.959960938 l 1
 352.770507812 547.340820312 l 1
 575.729492188 375.200195312 l 1
 362.770507812 217.900390625 l 9
 542.111328125 217.900390625 l 17
542.111328125 217.900390625 m 1025
EndSplineSet
LCarets2: 1 0
Ligature2: "liga standard lookup-1" greater equal
EndChar

StartChar: liga_colon_slash_slash
Encoding: 1194 -1 938
Width: 1650
Flags: HW
LayerCount: 2
Fore
SplineSet
151.5 189 m 0
 151.5 242 197.5 288 250.5 288 c 0
 303.5 288 349.5 242 349.5 189 c 0
 349.5 136 303.5 90 250.5 90 c 0
 197.5 90 151.5 136 151.5 189 c 0
301.5 569 m 0
 301.5 622 347.5 668 400.5 668 c 0
 453.5 668 499.5 622 499.5 569 c 0
 499.5 516 453.5 470 400.5 470 c 0
 347.5 470 301.5 516 301.5 569 c 0
1384.5 750 m 1
 1072.5 -20 l 1
 1186.5 -20 l 1
 1498.5 750 l 1
 1384.5 750 l 1
894.5 750 m 1
 592.5 -20 l 1
 706.5 -20 l 1
 1008.5 750 l 1
 894.5 750 l 1
EndSplineSet
LCarets2: 2 0 0
Ligature2: "liga standard lookup-1" colon slash slash
EndChar

StartChar: liga_equal_question
Encoding: 1195 -1 939
Width: 1100
Flags: HW
LayerCount: 2
Fore
SplineSet
1028 270 m 25
 512 270 l 25
 432 170 l 25
 1028 170 l 25
 1028 270 l 25
1028 490 m 25
 562 490 l 25
 562 390 l 25
 1028 390 l 25
 1028 490 l 25
228.999023438 311 m 2xf6
 229 366.517578125 265.782226562 401 325 401 c 0
 362.29296875 401 377 424.192382812 377 483 c 2
 377 546 l 2
 377 601.8046875 335.553710938 640 275 640 c 0
 213.958007812 640 173 602.254882812 173 546 c 2
 173 491 l 9
 82 491 l 17
 82 558 l 2
 82 648.96484375 173.400390625 730 276 730 c 0
 377.487304688 730 468 648.916015625 468 558 c 2
 468 464 l 2
 468 370.765625 410.1875 311 319.999023438 311 c 1
 319.999023438 191 l 1
 228.999023438 191 l 1
 228.999023438 311 l 2xf6
190 63 m 0xfa
 190 96.5185546875 229.046875 125 275 125 c 0
 320.953125 125 360 96.5185546875 360 63 c 0
 360 29.1943359375 320.610351562 0 275 0 c 0
 229.389648438 0 190 29.1943359375 190 63 c 0xfa
EndSplineSet
LCarets2: 1 0
Ligature2: "liga standard lookup-1" equal question
EndChar

StartChar: liga_asciitilde_asciitilde
Encoding: 1196 -1 940
Width: 1100
VWidth: 1050
Flags: HW
LayerCount: 2
Fore
SplineSet
590 319 m 4
 571.9375 247.489257812 514.529214845 219 440 219 c 4
 361.1875 219 292 259.348632812 292 324 c 4
 292 346.155273438 258.802734375 364 230 364 c 4
 187.423828125 364 150.012695312 353.594726562 148.713867188 292 c 6
 148 230 l 5
 64 230 l 5
 64 291 l 6
 64 401.060546875 139.362304688 444 230 444 c 4
 310.396484375 444 368 406.4375 368 343 c 4
 368 317.141601562 409.440429688 299 440 299 c 4
 474.891012009 299 500.303710938 306.553710938 508.915039062 342.333984375 c 4
 528.475585938 415.926757812 594.487118754 444 670 444 c 4
 750.396484375 444 808 406.4375 808 343 c 4
 808 317.141601562 849.440429688 299 880 299 c 4
 922.930664062 299 949.998046875 308.921875 951.286132812 371 c 6
 952 433 l 5
 1036 433 l 5
 1036 372 l 6
 1036 261.939453125 970.637695312 219 880 219 c 4
 801.1875 219 732 259.348632812 732 324 c 4
 732 346.155273438 698.802734375 364 670 364 c 4
 634.510920984 364 600.388671875 357.079101562 590 319 c 4
EndSplineSet
LCarets2: 1 0
Ligature2: "liga standard lookup-1" asciitilde asciitilde
EndChar

StartChar: liga_asciit_asciit_asciit
Encoding: 1197 -1 941
Width: 1650
VWidth: 1050
Flags: HW
LayerCount: 2
Fore
SplineSet
1010.38183594 342.623046875 m 0
 1000.11328125 306 974.305664062 299 939 299 c 0
 908.440429688 299 862 317.141601562 862 343 c 0
 862 406.4375 788.396484375 444 708 444 c 0
 632.487304688 444 561.475585938 415.926757812 541.915039062 342.333984375 c 0
 533.303710938 306.553710938 508.890625 299 474 299 c 0
 443.440429688 299 397 317.141601562 397 343 c 0
 397 406.4375 323.396484375 444 243 444 c 0
 152.362304688 444 66 401.060546875 66 291 c 2
 66 230 l 1
 150 230 l 1
 150.713867188 292 l 2
 152.012695312 353.594726562 200.423828125 364 243 364 c 0
 271.802734375 364 321 346.155273438 321 324 c 0
 321 259.348632812 395.1875 219 474 219 c 0
 548.529296875 219 604.9375 247.489257812 623 319 c 0
 633.388671875 357.079101562 672.510742188 364 708 364 c 0
 736.802734375 364 786 346.155273438 786 324 c 0
 786 259.348632812 860.1875 219 939 219 c 0
 1013.14550781 219 1071.06933594 247.735351562 1091.87695312 318.443359375 c 0
 1102.265625 356.522460938 1150.51074219 364 1186 364 c 0
 1214.80273438 364 1264 346.155273438 1264 324 c 0
 1264 259.348632812 1338.1875 219 1417 219 c 0
 1507.63769531 219 1584 261.939453125 1584 372 c 2
 1584 433 l 1
 1500 433 l 1
 1499.28613281 371 l 2
 1497.99804688 308.921875 1459.93066406 299 1417 299 c 0
 1386.44042969 299 1340 317.141601562 1340 343 c 0
 1340 406.4375 1266.39648438 444 1186 444 c 0
 1110.48730469 444 1029.94238281 416.215820312 1010.38183594 342.623046875 c 0
EndSplineSet
LCarets2: 2 0 0
Ligature2: "liga standard lookup-1" asciitilde asciitilde asciitilde
EndChar
